<svg width="52" height="52" viewBox="0 0 52 52" fill="none" xmlns="http://www.w3.org/2000/svg">
<path d="M25.9951 47.913C20.4863 47.913 14.9774 47.913 9.46727 47.913C7.82965 47.913 7.2028 47.2892 7.22159 45.6266C7.23904 44.0595 7.15045 42.472 7.35985 40.9281C7.73972 38.1271 9.26324 36.0645 11.7975 34.8537C14.6835 33.4764 17.5936 32.151 20.4916 30.7996C21.5373 30.3122 22.0635 28.9841 21.6245 27.9125C21.5641 27.7665 21.4044 27.6545 21.2755 27.5467C19.195 25.8254 18.0647 23.614 17.9963 20.8798C17.9829 20.3488 17.803 20.0103 17.4204 19.665C15.0607 17.5369 14.1814 14.9774 15.2875 11.8556C15.4164 11.4925 15.4177 11.0843 15.4996 10.7021C16.1479 7.65536 18.1748 5.92449 20.9292 4.96351C24.4192 3.74726 27.9132 3.7732 31.3563 5.18874C34.9322 6.66025 36.8933 9.89675 36.6208 13.8253C36.4906 15.6982 36.1537 17.5437 35.014 19.0521C34.3791 19.8902 34.1429 20.701 34.0462 21.7289C33.8261 24.059 32.7241 25.9824 30.9307 27.4661C29.9106 28.3111 30.0945 30.1252 31.2918 30.6876C34.0503 31.9844 36.7993 33.3017 39.5832 34.5411C43.1256 36.1191 44.8196 38.8601 44.782 42.76C44.7726 43.7633 44.782 44.7666 44.7807 45.7686C44.778 47.2496 44.127 47.9089 42.6518 47.9103C39.2651 47.913 35.8771 47.9103 32.4905 47.9103C30.3254 47.9103 28.1602 47.9103 25.9951 47.9103V47.913ZM19.3976 15.8756C19.3976 17.8358 19.3158 19.7318 19.4339 21.6129C19.4876 22.4701 19.8326 23.3574 20.2272 24.1341C21.5843 26.8027 24.3467 28.2729 27.0891 27.7706C29.5039 27.3283 31.1482 25.8145 32.163 23.584C32.6838 22.4387 32.8274 21.2293 32.7375 19.9543C32.6435 18.618 32.716 17.2707 32.716 15.892C30.8784 15.9466 29.5589 15.1699 28.4461 13.9891C25.591 15.7282 22.438 15.7186 19.3963 15.8756H19.3976ZM17.8835 18.2481C17.8835 17.3417 17.8849 16.6032 17.8835 15.8661C17.8808 14.8232 18.2366 14.4887 19.2715 14.4423C20.7467 14.3754 22.2259 14.3222 23.6917 14.1543C25.0971 13.9946 26.4877 13.6875 27.6689 12.807C28.4864 12.1968 28.7857 12.2228 29.4435 13.0077C30.3334 14.0697 31.4354 14.6198 32.8341 14.5038C33.5764 14.4423 33.9509 14.8013 33.9711 15.5726C33.9899 16.3274 33.9751 17.0823 33.9751 17.8385C34.0422 17.844 34.1093 17.8495 34.1778 17.8549C34.7657 16.8366 35.0597 15.7132 35.1939 14.5502C35.5885 11.1348 34.5053 7.76866 30.5039 6.32172C27.2555 5.14779 24.0259 5.20239 20.8326 6.47324C18.7158 7.31547 17.2245 8.77742 16.7828 11.1567C16.6728 11.7505 16.509 12.3347 16.3627 12.9203C15.8593 14.9324 16.3963 16.6428 17.8849 18.2494L17.8835 18.2481ZM38.8691 46.5098C40.2853 46.5098 41.6289 46.5125 42.9726 46.5084C43.3941 46.5071 43.4357 46.1958 43.4357 45.8723C43.4357 44.5864 43.4826 43.2979 43.4155 42.0161C43.2679 39.1727 41.9202 37.1306 39.3457 35.9512C37.9416 35.3083 36.5443 34.6503 35.1429 34.0006C34.9563 33.9146 34.767 33.8381 34.5536 33.7467C33.7388 35.4079 32.9657 37.0078 32.1724 38.598C31.6355 39.6737 30.7321 39.858 29.8019 39.1045C29.5576 38.9065 29.3173 38.7031 29.0488 38.4793C28.5777 39.8047 28.1387 41.021 28.4233 42.4147C28.6945 43.7469 28.7844 45.1188 28.9535 46.4716H37.5335C37.5335 45.4956 37.5389 44.5632 37.5309 43.6309C37.5268 43.1381 37.657 42.7177 38.2114 42.73C38.7577 42.7423 38.8799 43.1613 38.8718 43.6555C38.8584 44.5864 38.8678 45.5174 38.8678 46.5125L38.8691 46.5098ZM23.0595 46.4743C23.2286 45.0738 23.3105 43.6746 23.5883 42.3178C23.8702 40.9391 23.383 39.7638 22.9655 38.467C22.6407 38.7291 22.3655 38.9639 22.0782 39.1809C21.246 39.8102 20.3534 39.6177 19.8715 38.6827C19.4943 37.9496 19.156 37.1975 18.8017 36.4536C18.3735 35.5581 17.9453 34.6626 17.4929 33.718C15.7654 34.5207 14.0929 35.2892 12.4271 36.0713C10.4203 37.0146 9.08874 38.5953 8.77061 40.7998C8.52094 42.5307 8.62833 44.3175 8.60819 46.0784C8.60685 46.219 8.84981 46.4838 8.98404 46.4866C10.3478 46.5166 11.7116 46.5057 13.1318 46.5057C13.1318 45.527 13.1425 44.6151 13.1277 43.7046C13.1197 43.1941 13.2177 42.7314 13.8056 42.7286C14.4029 42.7259 14.4875 43.2064 14.4848 43.706C14.4794 44.6165 14.4835 45.5256 14.4835 46.4743H23.0595ZM28.8408 28.7329C26.9709 29.4564 25.03 29.4414 23.1668 28.6879C22.9803 29.5246 22.8044 30.315 22.6044 31.2091C23.6622 32.1045 24.8246 33.086 26.0085 34.0866C27.2032 33.0724 28.3616 32.0909 29.4032 31.2063C29.1978 30.3041 29.0233 29.5328 28.8421 28.7329H28.8408ZM33.3241 33.1638C32.5697 32.8075 31.8502 32.4335 31.0999 32.1359C30.8838 32.0499 30.5119 32.0991 30.3294 32.2424C29.4663 32.9181 28.6435 33.647 27.8059 34.3569C27.5696 34.5575 27.336 34.7609 27.0689 34.9902C28.371 36.0918 29.5911 37.1238 30.8583 38.1953C31.7012 36.474 32.4986 34.8455 33.3241 33.1624V33.1638ZM24.9427 34.9848C23.7669 33.9869 22.6688 33.0519 21.5614 32.1278C21.4621 32.0445 21.2675 31.9708 21.1695 32.0145C20.3561 32.3735 19.556 32.7611 18.7292 33.1515C19.5547 34.8756 20.3373 36.5068 21.1426 38.1899C22.4339 37.1006 23.6501 36.0754 24.9441 34.9848H24.9427ZM27.579 46.4879C27.375 44.813 27.1777 43.2023 26.9736 41.5288C26.4407 41.5288 25.9521 41.5492 25.4662 41.5219C25.0971 41.5015 24.9897 41.6639 24.9615 42.0106C24.9118 42.6181 24.8112 43.22 24.74 43.8261C24.6367 44.7011 24.54 45.5775 24.4367 46.4866H27.579V46.4879ZM25.9615 35.8802C25.3374 36.4454 24.4622 36.8808 24.2434 37.5401C24.0487 38.1298 24.5776 38.9666 24.7883 39.6955C24.8004 39.7378 24.8018 39.7938 24.83 39.817C24.9763 39.9385 25.1226 40.1337 25.2837 40.1501C25.7508 40.1951 26.2286 40.2006 26.6944 40.1487C26.8703 40.1296 27.1092 39.9453 27.175 39.7788C27.7548 38.2991 27.4407 37.0646 26.2327 36.0754C26.1682 36.0222 26.0958 35.9772 25.9615 35.8816V35.8802Z" fill="#9254DE"/>
</svg>
