<svg width="52" height="52" viewBox="0 0 52 52" fill="none" xmlns="http://www.w3.org/2000/svg">
<path d="M14.5832 47.9119C13.8481 47.5894 13.5497 47.0051 13.6118 46.1829C13.6368 45.8604 13.6162 45.5345 13.6162 45.1697C13.1979 45.1697 12.82 45.1708 12.4432 45.1697C11.5175 45.1651 11.0046 44.6322 11.0046 43.6614C11.0024 38.3268 11.0024 32.9922 11.0078 27.6564C11.0078 27.3603 10.9773 27.1293 10.7301 26.9189C10.4045 26.641 10.3478 26.2224 10.3478 25.7913C10.3522 22.2818 10.35 18.7734 10.35 15.2639C10.35 12.9677 10.35 10.6703 10.35 8.37412C10.35 7.34723 10.8488 6.83035 11.8344 6.82806C12.2145 6.82806 12.5946 6.82806 13.0008 6.82806C13.04 6.7057 13.0792 6.58906 13.1141 6.47242C13.5432 5.05672 14.7738 4.09501 16.1711 4.087C17.5782 4.079 18.8197 5.00869 19.2467 6.43011C19.3403 6.74344 19.4623 6.8395 19.776 6.83721C22.6424 6.82234 25.5088 6.83263 28.3753 6.82463C28.8795 6.82349 29.3021 6.95271 29.643 7.37124C29.7257 7.47301 29.9239 7.50732 30.0699 7.50732C32.5562 7.51533 35.0415 7.51189 37.5279 7.51304C38.5363 7.51304 39.0275 8.02992 39.0308 9.08655C39.0308 9.45591 39.0308 9.82527 39.0308 10.2564C39.4022 10.2564 39.7496 10.2564 40.0959 10.2564C41.1621 10.2575 41.6424 10.7573 41.6424 11.8699C41.6424 23.3099 41.638 34.7498 41.6522 46.1897C41.6522 47.0131 41.4082 47.5963 40.6698 47.913L14.5832 47.9119ZM40.3965 46.6094V11.5692H39.0297C39.0297 11.7819 39.034 11.966 39.0297 12.1501C39.0166 12.6269 38.7977 12.9002 38.4274 12.9094C38.0408 12.9185 37.811 12.6372 37.8088 12.1352C37.8045 11.1792 37.8088 10.2232 37.8067 9.26837C37.8067 9.11856 37.7947 8.96762 37.7882 8.82239H29.8804C29.8804 9.02708 29.8804 9.20776 29.8804 9.38958C29.8804 13.6264 29.8804 17.8632 29.8804 22.1C29.8804 23.327 29.8837 24.554 29.8804 25.7799C29.8771 26.8102 29.3849 27.3214 28.3971 27.3328C28.2751 27.334 28.152 27.3328 28.03 27.3328C22.9495 27.3328 17.8679 27.3328 12.7874 27.3328C12.6153 27.3328 12.4432 27.3328 12.2505 27.3328V43.8603H31.9278C31.9278 43.6797 31.9278 43.5253 31.9278 43.3721C31.9278 41.9747 31.9246 40.5761 31.9289 39.1787C31.9322 38.241 32.4266 37.7207 33.3131 37.7184C34.6582 37.715 36.0032 37.7184 37.3482 37.7184C37.4919 37.7184 37.6346 37.7184 37.8088 37.7184V37.1466C37.8088 29.9149 37.8088 22.6821 37.8088 15.4503C37.8088 15.2937 37.8012 15.1359 37.8154 14.9803C37.847 14.6098 38.0626 14.404 38.4002 14.3903C38.7237 14.3765 38.9371 14.5778 39.0101 14.9083C39.0428 15.0581 39.0319 15.2205 39.0319 15.3771C39.0319 22.7518 39.0286 30.1265 39.0384 37.5023C39.0384 38.2639 38.8043 38.8757 38.2869 39.4108C36.7002 41.053 35.1232 42.7054 33.5604 44.3738C33.0409 44.9284 32.455 45.1846 31.7111 45.1834C26.2636 45.1697 20.816 45.1766 15.3674 45.1766H14.8686V46.6163H40.3987L40.3965 46.6094ZM28.6312 8.11225H28.1281C24.2422 8.11225 20.3564 8.11225 16.4717 8.11225C15.8825 8.11225 15.5896 7.90298 15.583 7.48102C15.5765 7.05677 15.8792 6.8292 16.4554 6.82806C16.989 6.82806 17.5237 6.82806 18.0759 6.82806C17.7361 5.81717 16.8474 5.24198 15.9206 5.3872C14.9361 5.54044 14.2021 6.38437 14.1934 7.45472C14.1748 9.75094 14.1738 12.0483 14.1934 14.3445C14.2043 15.5372 15.0908 16.4281 16.1994 16.4269C17.3103 16.4269 18.1641 15.5361 18.1859 14.3331C18.2012 13.4629 18.1935 12.5926 18.1892 11.7224C18.1859 11.1849 17.9082 10.851 17.4911 10.859C17.0772 10.867 16.8093 11.2067 16.8017 11.7453C16.7962 12.1306 16.8071 12.516 16.7973 12.9002C16.7875 13.3233 16.5719 13.5749 16.2267 13.5932C15.864 13.6115 15.5983 13.3554 15.5841 12.9254C15.5678 12.4417 15.5558 11.9534 15.5896 11.4708C15.668 10.3696 16.5229 9.55196 17.5368 9.57255C18.5812 9.59428 19.3915 10.4519 19.4089 11.5875C19.4242 12.5435 19.4285 13.4995 19.4024 14.4543C19.3697 15.6745 18.8252 16.611 17.8396 17.2388C15.705 18.5962 13.0074 16.985 12.9703 14.3217C12.9431 12.4108 12.9649 10.4988 12.9638 8.58682C12.9638 8.43702 12.9638 8.28721 12.9638 8.13741H11.5959V26.0143H28.6323L28.6312 8.11225ZM33.1618 42.7374C34.3412 41.4989 35.5447 40.2353 36.6893 39.0346H33.1618V42.7374Z" fill="#07527E"/>
<path d="M27.3136 32.9123C29.6094 32.9123 31.9051 32.9111 34.2009 32.9146C34.3762 32.9146 34.5941 32.8826 34.7149 32.9763C34.8816 33.1055 35.0787 33.3434 35.0722 33.5287C35.0656 33.7345 34.8783 33.9746 34.7084 34.1199C34.594 34.2171 34.3719 34.1942 34.1976 34.1942C29.6061 34.1976 25.0146 34.1965 20.423 34.1965C20.3555 34.1965 20.2869 34.1988 20.2194 34.1965C19.7794 34.1759 19.5038 33.9266 19.5049 33.5481C19.5049 33.1673 19.7761 32.9169 20.2237 32.9169C22.587 32.9123 24.9514 32.9146 27.3147 32.9146L27.3136 32.9123Z" fill="#07527E"/>
<path d="M27.2991 29.4805C29.5807 29.4805 31.8634 29.4805 34.145 29.4805C34.2942 29.4805 34.4456 29.476 34.5927 29.4988C34.9074 29.5469 35.0762 29.7699 35.0936 30.082C35.111 30.3965 34.9597 30.6367 34.6558 30.7178C34.5012 30.759 34.3335 30.7624 34.1723 30.7624C29.5949 30.7647 25.0164 30.7647 20.439 30.7636C20.3574 30.7636 20.2757 30.767 20.1951 30.7613C19.7638 30.7339 19.4883 30.464 19.5057 30.0866C19.522 29.7218 19.7823 29.4828 20.2092 29.4828C22.5725 29.4782 24.9358 29.4805 27.2991 29.4805Z" fill="#07527E"/>
<path d="M24.7075 36.3418C26.1865 36.3418 27.6654 36.344 29.1455 36.3406C29.5147 36.3406 29.787 36.4687 29.8556 36.8827C29.9231 37.2875 29.6486 37.6042 29.2076 37.6214C28.8144 37.6362 28.4202 37.6259 28.027 37.6259C25.5025 37.6259 22.9792 37.6259 20.4547 37.6259C20.3458 37.6259 20.2369 37.6328 20.1291 37.6225C19.7533 37.5882 19.4996 37.3195 19.505 36.9684C19.5105 36.6128 19.762 36.3509 20.1487 36.3475C21.3423 36.3372 22.537 36.3429 23.7317 36.3418C24.0573 36.3418 24.3819 36.3418 24.7075 36.3418Z" fill="#07527E"/>
<path d="M16.1958 36.3452C16.4126 36.3452 16.6304 36.3349 16.846 36.3475C17.213 36.3703 17.4417 36.6071 17.4472 36.9593C17.4515 37.3321 17.2555 37.5756 16.9233 37.6031C16.4387 37.6442 15.9464 37.642 15.4629 37.6031C15.1264 37.5756 14.9227 37.3149 14.9391 36.9558C14.9543 36.6048 15.1525 36.3749 15.5054 36.3509C15.7352 36.336 15.9661 36.3475 16.1958 36.3475V36.3452Z" fill="#07527E"/>
<path d="M33.8495 14.2795C33.6186 14.2795 33.3877 14.2932 33.159 14.2761C32.8127 14.2509 32.6101 14.0451 32.5905 13.678C32.5709 13.3064 32.7669 13.0548 33.1002 13.025C33.5837 12.9816 34.076 12.9839 34.5606 13.0205C34.8983 13.0456 35.0899 13.2995 35.0997 13.6586C35.1095 13.9993 34.8547 14.2555 34.4997 14.2772C34.284 14.2909 34.0662 14.2795 33.8495 14.2795Z" fill="#07527E"/>
<path d="M33.8225 17.709C33.6058 17.709 33.389 17.7181 33.1723 17.7067C32.8456 17.6895 32.6376 17.5089 32.5962 17.1646C32.5526 16.8021 32.7127 16.5071 33.0503 16.474C33.572 16.4214 34.1046 16.4271 34.6273 16.474C34.9464 16.5025 35.1207 16.7839 35.0956 17.1201C35.0695 17.4711 34.868 17.693 34.513 17.709C34.2832 17.7193 34.0523 17.7113 33.8225 17.7113V17.709Z" fill="#07527E"/>
<path d="M16.2143 32.9203C16.4441 32.9203 16.676 32.9031 16.9047 32.9249C17.2326 32.9557 17.421 33.1627 17.4417 33.5081C17.4623 33.8546 17.2968 34.1256 16.9777 34.153C16.455 34.1988 15.9235 34.1976 15.4007 34.1507C15.0795 34.1221 14.9117 33.8363 14.9357 33.5024C14.9607 33.173 15.1492 32.9477 15.4835 32.9226C15.7264 32.9054 15.9714 32.9203 16.2143 32.9203Z" fill="#07527E"/>
<path d="M33.8333 21.1384C33.6035 21.1384 33.3715 21.1556 33.1428 21.135C32.7965 21.1041 32.6004 20.8914 32.5896 20.5232C32.5798 20.1756 32.7562 19.9217 33.0775 19.8977C33.5882 19.8588 34.1055 19.8588 34.6163 19.9011C34.9398 19.9286 35.1118 20.203 35.0955 20.5381C35.0792 20.8686 34.8973 21.1007 34.563 21.1316C34.3212 21.1533 34.0761 21.1362 33.8322 21.1362C33.8322 21.1362 33.8322 21.1384 33.8322 21.1396L33.8333 21.1384Z" fill="#07527E"/>
<path d="M16.2131 29.4897C16.4429 29.4897 16.6749 29.4737 16.9036 29.4931C17.2314 29.5217 17.4253 29.7252 17.4449 30.0717C17.4656 30.4365 17.2902 30.703 16.9472 30.7304C16.4495 30.7704 15.9452 30.7716 15.4486 30.7327C15.1055 30.7064 14.9171 30.4308 14.94 30.0763C14.9629 29.7264 15.1698 29.5045 15.5227 29.4874C15.7525 29.4771 15.9833 29.4851 16.2131 29.4851C16.2131 29.4863 16.2131 29.4885 16.2131 29.4897Z" fill="#07527E"/>
<path d="M33.8656 23.3112C34.0954 23.3112 34.3273 23.2906 34.5549 23.3157C34.9013 23.3546 35.0995 23.5913 35.0951 23.947C35.0908 24.3003 34.8947 24.5473 34.5441 24.5633C34.0714 24.5862 33.5966 24.5885 33.1239 24.5599C32.7776 24.5393 32.5881 24.3026 32.5892 23.9344C32.5903 23.5627 32.7939 23.3512 33.1348 23.3134C33.3755 23.2871 33.6216 23.3077 33.8656 23.3077C33.8656 23.3077 33.8656 23.31 33.8656 23.3112Z" fill="#07527E"/>
<path d="M20.0826 21.1487C18.4534 21.1487 16.8252 21.1487 15.196 21.1487C15.0468 21.1487 14.8573 21.1922 14.7582 21.1133C14.5697 20.9646 14.3204 20.7508 14.3084 20.5495C14.2964 20.3483 14.5229 20.1115 14.6841 19.9274C14.7473 19.8554 14.915 19.868 15.0359 19.868C18.4153 19.8657 21.7947 19.8645 25.1741 19.868C25.308 19.868 25.4507 19.8794 25.5727 19.9297C25.8449 20.0406 26.0083 20.2876 25.9223 20.569C25.858 20.7794 25.6685 20.9772 25.4866 21.1087C25.3723 21.191 25.1708 21.1476 25.0085 21.1476C23.3662 21.1499 21.725 21.1487 20.0826 21.1487Z" fill="#07527E"/>
<path d="M23.6656 14.2829C23.1635 14.2829 22.6615 14.2887 22.1594 14.2818C21.7379 14.2761 21.4809 14.0394 21.4711 13.6666C21.4613 13.2846 21.7347 13.0079 22.167 13.0045C23.1984 12.9953 24.2297 12.9942 25.2611 13.0045C25.6967 13.009 25.9581 13.2823 25.9439 13.6746C25.9298 14.0554 25.6858 14.2772 25.2535 14.2829C24.7242 14.2898 24.1949 14.2829 23.6656 14.2829Z" fill="#07527E"/>
<path d="M23.697 17.7113C23.1818 17.7113 22.6656 17.717 22.1505 17.709C21.7312 17.7021 21.4753 17.4585 21.4709 17.0857C21.4666 16.7175 21.7258 16.4396 22.1352 16.4339C23.1797 16.4202 24.2252 16.4213 25.2696 16.4328C25.69 16.4374 25.9416 16.6958 25.9448 17.0697C25.9492 17.4665 25.6954 17.7044 25.2445 17.7101C24.7294 17.717 24.2121 17.7113 23.697 17.7113Z" fill="#07527E"/>
</svg>
