<svg width="52" height="52" viewBox="0 0 52 52" fill="none" xmlns="http://www.w3.org/2000/svg">
<path d="M5.75652 46.7652C5.33913 46.5565 5.13043 46.1391 5.23478 45.6174C5.33913 39.6696 9.82609 34.3478 15.7739 33.4087C17.2348 33.2 18.6957 33.3043 20.1565 33.2C20.6783 33.2 21.2 32.887 21.7217 32.6783C21.9304 32.5739 21.8261 31.113 21.6174 31.0087C21.513 31.0087 21.513 30.9043 21.4087 30.9043C19.8435 29.9652 18.6957 28.6087 17.9652 26.8348C17.8609 26.5217 17.6522 26.5217 17.4435 26.5217C16.4 26.5217 15.3565 26.4174 14.4174 25.8956C11.3913 24.2261 11.0783 19.9478 13.8957 17.8609C14.1043 17.6522 14.2087 17.4435 14.2087 17.2348C14.313 12.1217 16.713 8.46956 21.3043 6.27826C28.087 3.14783 36.3304 7.53043 37.687 14.9391C37.7913 15.7739 37.7913 16.6087 37.8957 17.4435C37.8957 17.6522 38 17.7565 38.1043 17.8609C39.6696 19.113 40.4 20.7826 39.9826 22.7652C39.5652 24.7478 38.2087 26 36.2261 26.4174C35.7043 26.5217 35.0783 26.5217 34.5565 26.5217C34.2435 26.5217 34.1391 26.6261 34.0348 26.8348C33.3043 28.6087 32.1565 29.9652 30.487 30.9043C30.2783 31.0087 30.1739 31.2174 30.1739 31.4261V31.5304C30.1739 31.9478 30.1739 32.2609 30.2783 32.6783C30.8 32.887 31.3217 33.2 31.9478 33.2C33.6174 33.2 35.287 33.0956 36.9565 33.513C42.1739 34.7652 46.1391 39.2522 46.6609 44.6783C46.6609 44.7826 46.6609 44.887 46.7652 44.9913C46.7652 45.6174 46.7652 46.1391 46.7652 46.7652C41.0261 46.7652 35.1826 46.7652 29.4435 46.7652C28.9217 46.3478 28.713 46.0348 29.0261 45.513C29.2348 45.2 29.5478 45.0956 29.9652 45.0956C34.8696 45.0956 39.7739 45.0956 44.6783 45.0956C44.887 45.0956 44.9913 45.0956 45.2 45.0956C44.7826 38.9391 39.4609 34.7652 34.6609 34.7652C34.5565 35.0783 34.5565 35.287 34.3478 35.4956C33.0957 37.2696 31.9478 39.1478 30.6957 40.9217C30.1739 41.6522 29.7565 41.6522 29.2348 41.1304C28.2957 40.1913 27.3565 39.2522 26.4174 38.2087C26.313 38.1043 26.313 37.8956 26.2087 37.7913C24.9565 39.0435 23.913 40.087 22.8696 41.1304C22.2435 41.7565 21.8261 41.6522 21.3043 41.0261C20.1565 39.3565 19.0087 37.687 17.8609 36.0174C17.6522 35.7043 17.5478 35.287 17.3391 34.9739C11.6 35.0783 7.0087 40.1913 6.90435 45.3043C7.11304 45.3043 7.21739 45.3043 7.42609 45.3043C12.3304 45.3043 17.1304 45.3043 22.0348 45.3043C22.1391 45.3043 22.3478 45.3043 22.4522 45.3043C22.8696 45.3043 23.0783 45.513 23.1826 45.9304C23.287 46.2435 23.1826 46.5565 22.8696 46.7652C22.7652 46.8696 22.7652 46.8696 22.6609 46.9739C17.0261 46.7652 11.3913 46.7652 5.75652 46.7652ZM18.9043 19.4261C18.9043 20.7826 18.8 22.1391 18.9043 23.6C19.0087 26.6261 20.4696 28.8174 23.287 29.9652C26 31.113 28.5043 30.5913 30.8 28.713C31.2174 28.2956 31.6348 27.8783 32.0522 27.3565C32.0522 27.3565 32.0522 27.2522 31.9478 27.2522C31.0087 27.2522 30.1739 27.2522 29.2348 27.2522C29.0261 27.2522 28.8174 27.3565 28.713 27.5652C28.2957 28.4 27.5652 28.9217 26.5217 28.9217C26.1043 28.9217 25.687 28.9217 25.3739 28.9217C24.1217 28.9217 23.0783 27.7739 22.9739 26.5217C22.9739 25.1652 24.0174 24.1217 25.3739 24.0174C25.687 24.0174 26 24.0174 26.4174 24.0174C27.4609 24.0174 28.2957 24.4348 28.8174 25.3739C28.9217 25.4783 29.0261 25.5826 29.1304 25.5826C30.2783 25.5826 31.3217 25.5826 32.4696 25.5826C32.6783 25.5826 32.7826 25.4783 32.7826 25.2696C32.887 24.9565 32.9913 24.5391 32.9913 24.2261C32.9913 22.7652 32.9913 21.2 33.0957 19.7391C33.0957 19.4261 32.887 19.4261 32.6783 19.4261C31.113 19.2174 29.5478 18.5913 28.2957 17.7565C28.087 17.6522 27.8783 17.6522 27.6696 17.7565C26.1043 18.8 24.3304 19.4261 22.3478 19.5304C21.3043 19.5304 20.1565 19.4261 18.9043 19.4261ZM33.0957 17.8609C33.0957 17.2348 33.0957 16.6087 32.9913 16.087C32.4696 12.4348 29.0261 9.82609 25.4783 10.1391C21.7217 10.4522 18.9043 13.5826 19.0087 17.3391C19.0087 17.5478 19.113 17.6522 19.3217 17.7565C20.6783 18.0696 22.1391 18.0696 23.4957 17.8609C24.9565 17.5478 26.313 17.0261 27.4609 16.087C27.9826 15.6696 28.2957 15.6696 28.8174 16.087C28.9217 16.1913 29.0261 16.1913 29.1304 16.2957C30.1739 17.1304 31.5304 17.6522 33.0957 17.8609ZM36.2261 16.9217C36.3304 14.1043 34.7652 10.2435 31.2174 8.26087C27.4609 6.17391 23.6 6.27826 20.0522 8.78261C17.3391 10.7652 15.9826 13.4783 15.7739 16.9217C16.2957 16.9217 16.8174 16.8174 17.2348 16.8174C17.4435 11.7043 22.0348 8.36522 26.2087 8.46956C30.5913 8.57391 34.5565 12.1217 34.7652 16.8174C35.1826 16.9217 35.7043 16.9217 36.2261 16.9217ZM17.2348 18.5913C16.087 18.3826 14.7304 18.9043 14 19.9478C13.2696 21.0957 13.3739 22.5565 14.1043 23.6C14.8348 24.5391 16.1913 25.0609 17.1304 24.8522C17.2348 22.6609 17.2348 20.5739 17.2348 18.5913ZM34.7652 24.8522C36.2261 24.9565 37.3739 24.4348 38 23.287C38.6261 22.1391 38.6261 20.887 37.7913 19.8435C37.0609 18.8 36.0174 18.487 34.7652 18.5913C34.7652 20.6783 34.7652 22.7652 34.7652 24.8522ZM29.7565 39.3565C30.6957 38 31.5304 36.7478 32.4696 35.3913C31.5304 34.9739 30.6957 34.5565 29.8609 34.2435C29.7565 34.2435 29.6522 34.2435 29.5478 34.3478C29.0261 34.8696 28.5043 35.3913 27.9826 35.913C27.6696 36.2261 27.3565 36.4348 27.1478 36.6435C28.087 37.687 28.9217 38.5217 29.7565 39.3565ZM24.7478 36.8522C23.913 36.0174 22.9739 35.0783 22.1391 34.2435C21.3043 34.6609 20.3652 35.0783 19.4261 35.3913C20.3652 36.7478 21.2 38.1043 22.1391 39.3565C23.0783 38.5217 23.913 37.687 24.7478 36.8522ZM28.6087 31.7391C26.8348 32.2609 25.1652 32.2609 23.3913 31.7391C23.3913 32.1565 23.3913 32.4696 23.3913 32.7826C23.3913 32.887 23.3913 33.0956 23.4957 33.2C24.3304 34.0348 25.1652 34.8696 26 35.7043C26.8348 34.8696 27.6696 34.0348 28.5043 33.2C28.5043 33.2 28.6087 33.0956 28.6087 32.9913C28.6087 32.5739 28.6087 32.1565 28.6087 31.7391ZM26 27.2522C26.2087 27.2522 26.4174 27.2522 26.6261 27.2522C27.0435 27.2522 27.3565 26.8348 27.3565 26.4174C27.3565 26 27.0435 25.5826 26.6261 25.5826C26.2087 25.5826 25.7913 25.5826 25.3739 25.5826C24.9565 25.5826 24.6435 26 24.6435 26.4174C24.6435 26.8348 24.9565 27.1478 25.3739 27.2522C25.5826 27.2522 25.7913 27.2522 26 27.2522Z" fill="#13C2C2"/>
<path d="M25.7913 46.7652C25.687 46.7652 25.687 46.6609 25.5826 46.6609C25.2696 46.4522 25.1652 46.1391 25.2696 45.7217C25.3739 45.3043 25.687 45.0956 26.1043 45.2C26.5217 45.2 26.7304 45.4087 26.8348 45.7217C26.9391 46.1391 26.8348 46.4522 26.5217 46.6609C26.4174 46.6609 26.4174 46.7652 26.313 46.7652C26.1043 46.7652 25.8957 46.7652 25.7913 46.7652Z" fill="#13C2C2"/>
</svg>
