<svg width="56" height="56" viewBox="0 0 56 56" fill="none" xmlns="http://www.w3.org/2000/svg">
<circle cx="28" cy="28" r="28" fill="#5CDBD3" fill-opacity="0.2"/>
<path d="M12.2551 44.1507C11.9304 43.9884 11.7681 43.6637 11.8493 43.2579C11.9304 38.6319 15.4203 34.4927 20.0464 33.7623C21.1826 33.6 22.3188 33.6811 23.4551 33.6C23.8609 33.6 24.2667 33.3565 24.6725 33.1942C24.8348 33.113 24.7536 31.9768 24.5913 31.8956C24.5101 31.8956 24.5101 31.8145 24.429 31.8145C23.2116 31.084 22.3188 30.029 21.7507 28.6493C21.6696 28.4058 21.5072 28.4058 21.3449 28.4058C20.5333 28.4058 19.7217 28.3246 18.9913 27.9188C16.6377 26.6203 16.3942 23.2927 18.5855 21.6695C18.7478 21.5072 18.829 21.3449 18.829 21.1826C18.9101 17.2058 20.7768 14.3652 24.3478 12.6609C29.6232 10.2261 36.0348 13.6348 37.0898 19.3971C37.171 20.0464 37.171 20.6956 37.2522 21.3449C37.2522 21.5072 37.3333 21.5884 37.4145 21.6695C38.6319 22.6435 39.2 23.942 38.8753 25.484C38.5507 27.0261 37.4956 28 35.9536 28.3246C35.5478 28.4058 35.0609 28.4058 34.6551 28.4058C34.4116 28.4058 34.3304 28.4869 34.2493 28.6493C33.6811 30.029 32.7884 31.084 31.4898 31.8145C31.3275 31.8956 31.2464 32.0579 31.2464 32.2203V32.3014C31.2464 32.6261 31.2464 32.8695 31.3275 33.1942C31.7333 33.3565 32.1391 33.6 32.6261 33.6C33.9246 33.6 35.2232 33.5188 36.5217 33.8435C40.5797 34.8174 43.6638 38.3072 44.0695 42.5275C44.0695 42.6087 44.0695 42.6898 44.1507 42.771C44.1507 43.2579 44.1507 43.6637 44.1507 44.1507C39.6869 44.1507 35.142 44.1507 30.6782 44.1507C30.2724 43.8261 30.1101 43.5826 30.3536 43.1768C30.5159 42.9333 30.7594 42.8521 31.084 42.8521C34.8985 42.8521 38.713 42.8521 42.5275 42.8521C42.6898 42.8521 42.771 42.8521 42.9333 42.8521C42.6087 38.0637 38.4695 34.8174 34.7362 34.8174C34.6551 35.0608 34.6551 35.2232 34.4927 35.3855C33.5188 36.7652 32.6261 38.2261 31.6522 39.6058C31.2464 40.1739 30.9217 40.1739 30.5159 39.7681C29.7855 39.0377 29.0551 38.3072 28.3246 37.4956C28.2435 37.4145 28.2435 37.2521 28.1623 37.171C27.1884 38.1449 26.3768 38.9565 25.5652 39.7681C25.0782 40.255 24.7536 40.1739 24.3478 39.6869C23.4551 38.3884 22.5623 37.0898 21.6696 35.7913C21.5072 35.5478 21.4261 35.2232 21.2638 34.9797C16.8 35.0608 13.229 39.0377 13.1478 43.0145C13.3101 43.0145 13.3913 43.0145 13.5536 43.0145C17.3681 43.0145 21.1014 43.0145 24.9159 43.0145C24.9971 43.0145 25.1594 43.0145 25.2406 43.0145C25.5652 43.0145 25.7275 43.1768 25.8087 43.5014C25.8898 43.7449 25.8087 43.9884 25.5652 44.1507C25.484 44.2319 25.484 44.2319 25.4029 44.313C21.0203 44.1507 16.6377 44.1507 12.2551 44.1507ZM22.4811 22.8869C22.4811 23.942 22.4 24.9971 22.4811 26.1333C22.5623 28.4869 23.6985 30.1913 25.8898 31.084C28 31.9768 29.9478 31.571 31.7333 30.1101C32.058 29.7855 32.3826 29.4608 32.7072 29.055C32.7072 29.055 32.7072 28.9739 32.6261 28.9739C31.8956 28.9739 31.2464 28.9739 30.5159 28.9739C30.3536 28.9739 30.1913 29.0551 30.1101 29.2174C29.7855 29.8666 29.2174 30.2724 28.4058 30.2724C28.0811 30.2724 27.7565 30.2724 27.513 30.2724C26.5391 30.2724 25.7275 29.3797 25.6464 28.4058C25.6464 27.3507 26.458 26.5391 27.513 26.458C27.7565 26.458 28 26.458 28.3246 26.458C29.1362 26.458 29.7855 26.7826 30.1913 27.513C30.2725 27.5942 30.3536 27.6753 30.4348 27.6753C31.3275 27.6753 32.1391 27.6753 33.0319 27.6753C33.1942 27.6753 33.2753 27.5942 33.2753 27.4319C33.3565 27.1884 33.4377 26.8637 33.4377 26.6203C33.4377 25.484 33.4377 24.2666 33.5188 23.1304C33.5188 22.8869 33.3565 22.8869 33.1942 22.8869C31.9768 22.7246 30.7594 22.2377 29.7855 21.5884C29.6232 21.5072 29.4609 21.5072 29.2985 21.5884C28.0811 22.4 26.7014 22.8869 25.1594 22.9681C24.3478 22.9681 23.4551 22.8869 22.4811 22.8869ZM33.5188 21.6695C33.5188 21.1826 33.5188 20.6956 33.4377 20.2898C33.0319 17.4493 30.3536 15.4203 27.5942 15.6637C24.6725 15.9072 22.4811 18.342 22.5623 21.2637C22.5623 21.4261 22.6435 21.5072 22.8058 21.5884C23.8609 21.8319 24.9971 21.8319 26.0522 21.6695C27.1884 21.4261 28.2435 21.0203 29.1362 20.2898C29.542 19.9652 29.7855 19.9652 30.1913 20.2898C30.2725 20.371 30.3536 20.371 30.4348 20.4522C31.2464 21.1014 32.3014 21.5072 33.5188 21.6695ZM35.9536 20.9391C36.0348 18.7478 34.8174 15.7449 32.058 14.2029C29.1362 12.5797 26.1333 12.6609 23.3739 14.6087C21.2638 16.1507 20.2087 18.2609 20.0464 20.9391C20.4522 20.9391 20.858 20.858 21.1826 20.858C21.3449 16.8811 24.9159 14.284 28.1623 14.3652C31.571 14.4464 34.6551 17.2058 34.8174 20.858C35.142 20.9391 35.5478 20.9391 35.9536 20.9391ZM21.1826 22.2377C20.2898 22.0753 19.2348 22.4811 18.6667 23.2927C18.0985 24.1855 18.1797 25.3217 18.7478 26.1333C19.3159 26.8637 20.371 27.2695 21.1014 27.1072C21.1826 25.4029 21.1826 23.7797 21.1826 22.2377ZM34.8174 27.1072C35.9536 27.1884 36.8464 26.7826 37.3333 25.8898C37.8203 24.9971 37.8203 24.0232 37.171 23.2116C36.6029 22.4 35.7913 22.1565 34.8174 22.2377C34.8174 23.8608 34.8174 25.484 34.8174 27.1072ZM30.9217 38.3884C31.6522 37.3333 32.3014 36.3594 33.0319 35.3043C32.3014 34.9797 31.6522 34.6551 31.0029 34.4116C30.9217 34.4116 30.8406 34.4116 30.7594 34.4927C30.3536 34.8985 29.9478 35.3043 29.542 35.7101C29.2985 35.9536 29.0551 36.1159 28.8927 36.2782C29.6232 37.0898 30.2725 37.7391 30.9217 38.3884ZM27.0261 36.4406C26.3768 35.7913 25.6464 35.0608 24.9971 34.4116C24.3478 34.7362 23.6174 35.0608 22.8869 35.3043C23.6174 36.3594 24.2667 37.4145 24.9971 38.3884C25.7275 37.7391 26.3768 37.0898 27.0261 36.4406ZM30.029 32.4637C28.6493 32.8695 27.3507 32.8695 25.971 32.4637C25.971 32.7884 25.971 33.0319 25.971 33.2753C25.971 33.3565 25.971 33.5188 26.0522 33.6C26.7014 34.2493 27.3507 34.8985 28 35.5478C28.6493 34.8985 29.2985 34.2493 29.9478 33.6C29.9478 33.6 30.029 33.5188 30.029 33.4377C30.029 33.113 30.029 32.7884 30.029 32.4637ZM28 28.9739C28.1623 28.9739 28.3246 28.9739 28.4869 28.9739C28.8116 28.9739 29.0551 28.6493 29.0551 28.3246C29.0551 28 28.8116 27.6753 28.4869 27.6753C28.1623 27.6753 27.8377 27.6753 27.513 27.6753C27.1884 27.6753 26.9449 28 26.9449 28.3246C26.9449 28.6493 27.1884 28.8927 27.513 28.9739C27.6753 28.9739 27.8377 28.9739 28 28.9739Z" fill="#13C2C2"/>
<path d="M27.8377 44.1507C27.7565 44.1507 27.7565 44.0695 27.6754 44.0695C27.4319 43.9072 27.3507 43.6637 27.4319 43.3391C27.513 43.0145 27.7565 42.8522 28.0811 42.9333C28.4058 42.9333 28.5681 43.0956 28.6493 43.3391C28.7304 43.6637 28.6493 43.9072 28.4058 44.0695C28.3246 44.0695 28.3246 44.1507 28.2435 44.1507C28.0811 44.1507 27.9188 44.1507 27.8377 44.1507Z" fill="#13C2C2"/>
</svg>
