<svg width="56" height="56" viewBox="0 0 56 56" fill="none" xmlns="http://www.w3.org/2000/svg">
<circle cx="28" cy="28" r="28" fill="#0CA3DF" fill-opacity="0.2"/>
<path d="M19.1203 45.0425C18.5485 44.7917 18.3164 44.3372 18.3647 43.6978C18.3842 43.4469 18.3681 43.1935 18.3681 42.9097C18.0428 42.9097 17.7489 42.9106 17.4558 42.9097C16.7358 42.9062 16.3368 42.4917 16.3368 41.7366C16.3351 37.5875 16.3351 33.4383 16.3394 29.2883C16.3394 29.0579 16.3156 28.8783 16.1234 28.7146C15.8701 28.4985 15.826 28.173 15.826 27.8377C15.8294 25.108 15.8277 22.3793 15.8277 19.6497C15.8277 17.8637 15.8277 16.0769 15.8277 14.2909C15.8277 13.4923 16.2157 13.0902 16.9823 13.0885C17.2779 13.0885 17.5735 13.0885 17.8895 13.0885C17.92 12.9933 17.9505 12.9026 17.9776 12.8118C18.3113 11.7107 19.2685 10.9627 20.3553 10.9565C21.4497 10.9503 22.4153 11.6734 22.7474 12.7789C22.8202 13.0226 22.9151 13.0973 23.159 13.0956C25.3885 13.084 27.6179 13.092 29.8474 13.0858C30.2396 13.0849 30.5682 13.1854 30.8334 13.5109C30.8977 13.5901 31.0519 13.6168 31.1654 13.6168C33.0992 13.623 35.0322 13.6203 36.9661 13.6212C37.7504 13.6212 38.1325 14.0232 38.135 14.8451C38.135 15.1323 38.135 15.4196 38.135 15.7549C38.4239 15.7549 38.6941 15.7549 38.9634 15.7549C39.7927 15.7558 40.1663 16.1445 40.1663 17.0099C40.1663 25.9076 40.1629 34.8054 40.1739 43.7031C40.1739 44.3435 39.9841 44.7971 39.4098 45.0434L19.1203 45.0425ZM39.1972 44.0295V16.776H38.1342C38.1342 16.9414 38.1375 17.0846 38.1342 17.2278C38.124 17.5987 37.9537 17.8113 37.6657 17.8184C37.365 17.8255 37.1863 17.6067 37.1846 17.2162C37.1812 16.4727 37.1846 15.7291 37.1829 14.9865C37.1829 14.87 37.1736 14.7526 37.1685 14.6396H31.018C31.018 14.7988 31.018 14.9393 31.018 15.0807C31.018 18.376 31.018 21.6713 31.018 24.9666C31.018 25.921 31.0206 26.8753 31.018 27.8288C31.0155 28.6301 30.6326 29.0277 29.8643 29.0366C29.7695 29.0375 29.6737 29.0366 29.5789 29.0366C25.6274 29.0366 21.675 29.0366 17.7235 29.0366C17.5896 29.0366 17.4558 29.0366 17.3059 29.0366V41.8913H32.6105C32.6105 41.7508 32.6105 41.6307 32.6105 41.5116C32.6105 40.4247 32.608 39.3369 32.6113 38.2501C32.6139 37.5207 32.9984 37.1161 33.688 37.1143C34.7341 37.1116 35.7802 37.1143 36.8263 37.1143C36.9381 37.1143 37.0491 37.1143 37.1846 37.1143V36.6696C37.1846 31.0449 37.1846 25.4193 37.1846 19.7947C37.1846 19.6728 37.1787 19.5501 37.1897 19.4291C37.2143 19.1409 37.382 18.9808 37.6446 18.9702C37.8961 18.9595 38.0622 19.116 38.1189 19.3731C38.1443 19.4896 38.1359 19.6159 38.1359 19.7377C38.1359 25.4736 38.1333 31.2094 38.1409 36.9462C38.1409 37.5385 37.9588 38.0144 37.5565 38.4306C36.3223 39.7078 35.0958 40.993 33.8802 42.2907C33.4762 42.7221 33.0205 42.9213 32.4419 42.9204C28.205 42.9097 23.968 42.9151 19.7301 42.9151H19.3422V44.0348H39.1989L39.1972 44.0295ZM30.0465 14.0873H29.6551C26.6328 14.0873 23.6105 14.0873 20.5891 14.0873C20.1308 14.0873 19.9029 13.9245 19.8979 13.5963C19.8928 13.2663 20.1283 13.0893 20.5763 13.0885C20.9914 13.0885 21.4073 13.0885 21.8368 13.0885C21.5725 12.3022 20.8813 11.8548 20.1604 11.9678C19.3947 12.087 18.8238 12.7434 18.817 13.5759C18.8026 15.3618 18.8018 17.1486 18.817 18.9346C18.8255 19.8623 19.515 20.5551 20.3773 20.5542C21.2413 20.5542 21.9054 19.8614 21.9223 18.9257C21.9342 18.2489 21.9283 17.572 21.9249 16.8952C21.9223 16.4771 21.7063 16.2174 21.3819 16.2237C21.06 16.2299 20.8516 16.494 20.8457 16.9129C20.8415 17.2127 20.8499 17.5124 20.8423 17.8113C20.8347 18.1403 20.667 18.336 20.3985 18.3502C20.1164 18.3645 19.9097 18.1652 19.8987 17.8308C19.886 17.4546 19.8767 17.0748 19.9029 16.6995C19.9639 15.843 20.6289 15.207 21.4175 15.2231C22.2298 15.24 22.86 15.907 22.8736 16.7902C22.8854 17.5338 22.8888 18.2773 22.8685 19.02C22.8431 19.969 22.4195 20.6974 21.653 21.1857C19.9927 22.2414 17.8946 20.9883 17.8658 18.9168C17.8446 17.4306 17.8615 15.9435 17.8607 14.4564C17.8607 14.3399 17.8607 14.2234 17.8607 14.1068H16.7968V28.0111H30.0473L30.0465 14.0873ZM33.5702 41.0179C34.4876 40.0547 35.4236 39.0719 36.3138 38.138H33.5702V41.0179Z" fill="#07527E"/>
<path d="M29.0216 33.3762C30.8072 33.3762 32.5928 33.3753 34.3784 33.378C34.5148 33.378 34.6842 33.3531 34.7782 33.426C34.9078 33.5265 35.0612 33.7115 35.0561 33.8556C35.051 34.0157 34.9053 34.2025 34.7732 34.3154C34.6842 34.391 34.5114 34.3732 34.3759 34.3732C30.8047 34.3759 27.2335 34.375 23.6623 34.375C23.6098 34.375 23.5564 34.3768 23.5039 34.375C23.1617 34.359 22.9474 34.1651 22.9482 33.8707C22.9482 33.5745 23.1591 33.3797 23.5073 33.3797C25.3454 33.3762 27.1844 33.378 29.0225 33.378L29.0216 33.3762Z" fill="#07527E"/>
<path d="M29.0104 30.707C30.785 30.707 32.5604 30.707 34.335 30.707C34.451 30.707 34.5688 30.7035 34.6831 30.7213C34.9279 30.7586 35.0592 30.9321 35.0728 31.1749C35.0863 31.4195 34.9686 31.6062 34.7323 31.6694C34.612 31.7014 34.4815 31.7041 34.3562 31.7041C30.796 31.7059 27.2349 31.7059 23.6748 31.705C23.6112 31.705 23.5477 31.7076 23.485 31.7032C23.1496 31.6818 22.9353 31.4719 22.9488 31.1784C22.9615 30.8947 23.164 30.7088 23.496 30.7088C25.3341 30.7053 27.1723 30.707 29.0104 30.707Z" fill="#07527E"/>
<path d="M26.9947 36.0436C28.145 36.0436 29.2953 36.0453 30.4464 36.0427C30.7336 36.0427 30.9454 36.1423 30.9987 36.4642C31.0512 36.7791 30.8378 37.0255 30.4947 37.0388C30.1889 37.0504 29.8823 37.0424 29.5765 37.0424C27.613 37.0424 25.6504 37.0424 23.6869 37.0424C23.6022 37.0424 23.5175 37.0477 23.4337 37.0397C23.1414 37.013 22.9441 36.804 22.9483 36.531C22.9525 36.2543 23.1482 36.0507 23.4489 36.048C24.3773 36.04 25.3065 36.0444 26.2357 36.0436C26.489 36.0436 26.7414 36.0436 26.9947 36.0436Z" fill="#07527E"/>
<path d="M20.3745 36.0462C20.5431 36.0462 20.7125 36.0382 20.8802 36.048C21.1657 36.0658 21.3435 36.2499 21.3478 36.5238C21.3512 36.8138 21.1987 37.0032 20.9403 37.0246C20.5634 37.0566 20.1805 37.0548 19.8044 37.0246C19.5427 37.0032 19.3843 36.8004 19.397 36.5212C19.4089 36.2481 19.563 36.0693 19.8375 36.0507C20.0162 36.0391 20.1958 36.048 20.3745 36.048V36.0462Z" fill="#07527E"/>
<path d="M34.1051 18.884C33.9255 18.884 33.7459 18.8947 33.5681 18.8814C33.2987 18.8618 33.1411 18.7017 33.1259 18.4162C33.1107 18.1271 33.2631 17.9315 33.5223 17.9083C33.8984 17.8745 34.2813 17.8763 34.6582 17.9048C34.9208 17.9243 35.0699 18.1218 35.0775 18.4011C35.0851 18.6661 34.8869 18.8653 34.6108 18.8822C34.4431 18.8929 34.2737 18.884 34.1051 18.884Z" fill="#07527E"/>
<path d="M34.0841 21.5514C33.9155 21.5514 33.747 21.5585 33.5784 21.5496C33.3243 21.5363 33.1625 21.3957 33.1303 21.128C33.0964 20.8461 33.221 20.6166 33.4835 20.5908C33.8893 20.5499 34.3035 20.5543 34.7101 20.5908C34.9583 20.6131 35.0938 20.8318 35.0743 21.0933C35.054 21.3664 34.8973 21.5389 34.6211 21.5514C34.4424 21.5594 34.2628 21.5532 34.0841 21.5532V21.5514Z" fill="#07527E"/>
<path d="M20.3888 33.3824C20.5676 33.3824 20.748 33.3691 20.9259 33.386C21.1808 33.41 21.3274 33.571 21.3435 33.8396C21.3596 34.1091 21.2308 34.3199 20.9826 34.3412C20.576 34.3768 20.1627 34.3759 19.7561 34.3394C19.5062 34.3172 19.3757 34.0948 19.3944 33.8351C19.4139 33.579 19.5604 33.4038 19.8204 33.3842C20.0093 33.3708 20.1999 33.3824 20.3888 33.3824Z" fill="#07527E"/>
<path d="M34.0925 24.2187C33.9138 24.2187 33.7333 24.2321 33.5555 24.2161C33.2861 24.1921 33.1336 24.0266 33.1252 23.7402C33.1175 23.4699 33.2548 23.2724 33.5046 23.2537C33.9019 23.2235 34.3043 23.2235 34.7015 23.2564C34.9531 23.2777 35.0869 23.4912 35.0742 23.7518C35.0615 24.0088 34.9201 24.1894 34.66 24.2134C34.472 24.2303 34.2814 24.217 34.0917 24.217C34.0917 24.217 34.0917 24.2187 34.0917 24.2196L34.0925 24.2187Z" fill="#07527E"/>
<path d="M20.3879 30.7142C20.5667 30.7142 20.7471 30.7017 20.925 30.7168C21.1799 30.7391 21.3307 30.8974 21.346 31.1669C21.3621 31.4506 21.2257 31.6578 20.9589 31.6792C20.5718 31.7103 20.1796 31.7112 19.7933 31.681C19.5265 31.6605 19.3799 31.4461 19.3977 31.1704C19.4155 30.8983 19.5765 30.7257 19.8509 30.7124C20.0296 30.7044 20.2092 30.7106 20.3879 30.7106C20.3879 30.7115 20.3879 30.7133 20.3879 30.7142Z" fill="#07527E"/>
<path d="M34.1176 25.9086C34.2963 25.9086 34.4768 25.8926 34.6538 25.9122C34.9232 25.9424 35.0773 26.1265 35.0739 26.4032C35.0706 26.678 34.9181 26.8701 34.6453 26.8826C34.2777 26.9003 33.9084 26.9021 33.5408 26.8799C33.2714 26.8639 33.124 26.6798 33.1249 26.3934C33.1257 26.1043 33.2841 25.9398 33.5492 25.9104C33.7364 25.89 33.9279 25.906 34.1176 25.906C34.1176 25.906 34.1176 25.9078 34.1176 25.9086Z" fill="#07527E"/>
<path d="M23.3976 24.2268C22.1304 24.2268 20.864 24.2268 19.5968 24.2268C19.4808 24.2268 19.3334 24.2606 19.2563 24.1992C19.1098 24.0836 18.9158 23.9172 18.9065 23.7607C18.8971 23.6042 19.0733 23.4201 19.1987 23.2769C19.2478 23.2208 19.3783 23.2306 19.4723 23.2306C22.1007 23.2288 24.7291 23.2279 27.3576 23.2306C27.4617 23.2306 27.5727 23.2395 27.6676 23.2786C27.8793 23.3649 28.0064 23.557 27.9395 23.7758C27.8895 23.9395 27.7421 24.0933 27.6007 24.1956C27.5117 24.2597 27.355 24.2259 27.2288 24.2259C25.9514 24.2276 24.6749 24.2268 23.3976 24.2268Z" fill="#07527E"/>
<path d="M26.1843 18.8867C25.7938 18.8867 25.4033 18.8911 25.0128 18.8858C24.685 18.8814 24.4851 18.6972 24.4775 18.4073C24.4699 18.1102 24.6825 17.895 25.0188 17.8923C25.8209 17.8852 26.6231 17.8843 27.4252 17.8923C27.7641 17.8959 27.9674 18.1085 27.9563 18.4135C27.9453 18.7097 27.7556 18.8822 27.4193 18.8867C27.0076 18.892 26.596 18.8867 26.1843 18.8867Z" fill="#07527E"/>
<path d="M26.2087 21.5532C25.8081 21.5532 25.4065 21.5576 25.0059 21.5514C24.6798 21.546 24.4807 21.3566 24.4773 21.0666C24.4739 20.7803 24.6755 20.5641 24.994 20.5597C25.8064 20.549 26.6195 20.5499 27.4319 20.5588C27.7588 20.5624 27.9545 20.7634 27.957 21.0542C27.9604 21.3628 27.7631 21.5478 27.4124 21.5523C27.0117 21.5576 26.6094 21.5532 26.2087 21.5532Z" fill="#07527E"/>
</svg>
