<svg width="56" height="56" viewBox="0 0 56 56" fill="none" xmlns="http://www.w3.org/2000/svg">
<circle cx="28" cy="28" r="28" fill="#D3ADF7" fill-opacity="0.2"/>
<path d="M27.9962 45.0434C23.7115 45.0434 19.4269 45.0434 15.1412 45.0434C13.8675 45.0434 13.3799 44.5582 13.3946 43.2651C13.4081 42.0463 13.3392 40.8115 13.5021 39.6107C13.7976 37.4321 14.9825 35.8279 16.9536 34.8862C19.1982 33.8149 21.4617 32.784 23.7157 31.733C24.529 31.3539 24.9382 30.3209 24.5969 29.4875C24.5499 29.3739 24.4256 29.2868 24.3254 29.2029C22.7072 27.8641 21.8281 26.1442 21.7749 24.0176C21.7644 23.6046 21.6245 23.3413 21.327 23.0727C19.4916 21.4175 18.8078 19.4268 19.6681 16.9987C19.7683 16.7163 19.7693 16.3989 19.833 16.1016C20.3373 13.7319 21.9137 12.3857 24.0561 11.6382C26.7705 10.6923 29.4881 10.7124 32.166 11.8134C34.9472 12.9579 36.4725 15.4752 36.2606 18.5308C36.1593 19.9874 35.8973 21.4228 35.0109 22.596C34.5171 23.2479 34.3333 23.8785 34.2582 24.678C34.087 26.4903 33.2298 27.9862 31.835 29.1403C31.0416 29.7975 31.1846 31.2085 32.1159 31.6459C34.2613 32.6545 36.3994 33.679 38.5647 34.6431C41.3199 35.8704 42.6374 38.0023 42.6082 41.0355C42.6009 41.8159 42.6082 42.5962 42.6072 43.3755C42.6051 44.5275 42.0987 45.0403 40.9514 45.0413C38.3173 45.0434 35.6822 45.0413 33.0482 45.0413C31.3642 45.0413 29.6802 45.0413 27.9962 45.0413V45.0434ZM22.8648 20.1254C22.8648 21.65 22.8011 23.1247 22.893 24.5877C22.9348 25.2545 23.2031 25.9446 23.51 26.5487C24.5655 28.6243 26.7141 29.7678 28.847 29.3771C30.7252 29.0331 32.0041 27.8556 32.7934 26.1208C33.1985 25.2301 33.3102 24.2894 33.2403 23.2978C33.1672 22.2584 33.2236 21.2105 33.2236 20.1382C31.7943 20.1807 30.768 19.5765 29.9025 18.6582C27.6819 20.0108 25.2295 20.0033 22.8638 20.1254H22.8648ZM21.6872 21.9707C21.6872 21.2657 21.6882 20.6913 21.6872 20.118C21.6851 19.3069 21.9618 19.0468 22.7667 19.0107C23.9141 18.9586 25.0646 18.9172 26.2046 18.7866C27.2977 18.6624 28.3793 18.4235 29.2981 17.7388C29.9339 17.2642 30.1667 17.2843 30.6782 17.8948C31.3704 18.7208 32.2276 19.1487 33.3154 19.0584C33.8928 19.0107 34.184 19.2899 34.1997 19.8897C34.2143 20.4769 34.2028 21.064 34.2028 21.6522C34.255 21.6564 34.3072 21.6607 34.3605 21.6649C34.8178 20.8729 35.0464 19.9991 35.1508 19.0945C35.4577 16.4382 34.6152 13.82 31.503 12.6946C28.9765 11.7816 26.4646 11.824 23.9809 12.8125C22.3345 13.4675 21.1746 14.6046 20.8311 16.4552C20.7455 16.917 20.6181 17.3714 20.5043 17.8269C20.1128 19.3918 20.5304 20.7221 21.6882 21.9717L21.6872 21.9707ZM38.0093 43.952C39.1108 43.952 40.1558 43.9541 41.2009 43.951C41.5287 43.9499 41.5611 43.7078 41.5611 43.4562C41.5611 42.4561 41.5976 41.4538 41.5454 40.4569C41.4306 38.2454 40.3824 36.6571 38.3799 35.7398C37.2879 35.2397 36.2011 34.728 35.1111 34.2226C34.966 34.1558 34.8188 34.0963 34.6528 34.0252C34.0191 35.3172 33.4177 36.5616 32.8007 37.7984C32.3831 38.635 31.6805 38.7784 30.957 38.1923C30.767 38.0384 30.5801 37.8802 30.3713 37.7061C30.0049 38.737 29.6635 39.6829 29.8848 40.7669C30.0957 41.8031 30.1656 42.8701 30.2972 43.9223H36.9705C36.9705 43.1632 36.9747 42.438 36.9684 41.7129C36.9653 41.3296 37.0666 41.0026 37.4978 41.0122C37.9227 41.0217 38.0177 41.3477 38.0114 41.732C38.001 42.4561 38.0083 43.1802 38.0083 43.9541L38.0093 43.952ZM25.7129 43.9244C25.8444 42.8351 25.9081 41.7469 26.1242 40.6915C26.3435 39.6192 25.9645 38.7051 25.6398 37.6965C25.3872 37.9004 25.1731 38.083 24.9497 38.2518C24.3024 38.7412 23.6082 38.5915 23.2334 37.8643C22.94 37.2941 22.6769 36.7091 22.4013 36.1305C22.0682 35.434 21.7352 34.7376 21.3834 34.0029C20.0397 34.6271 18.7389 35.2249 17.4433 35.8332C15.8825 36.5669 14.8468 37.7963 14.5994 39.5109C14.4052 40.8572 14.4887 42.2469 14.473 43.6165C14.472 43.7259 14.661 43.9318 14.7654 43.934C15.8261 43.9573 16.8868 43.9488 17.9914 43.9488C17.9914 43.1876 17.9997 42.4784 17.9882 41.7702C17.982 41.3732 18.0582 41.0132 18.5155 41.0111C18.98 41.009 19.0458 41.3827 19.0437 41.7713C19.0396 42.4794 19.0427 43.1865 19.0427 43.9244H25.7129ZM30.2095 30.1256C28.7552 30.6883 27.2455 30.6766 25.7964 30.0905C25.6513 30.7413 25.5145 31.3561 25.359 32.0515C26.1817 32.7479 27.0858 33.5113 28.0066 34.2895C28.9358 33.5007 29.8368 32.7373 30.6469 32.0493C30.4872 31.3476 30.3515 30.7477 30.2105 30.1256H30.2095ZM33.6965 33.5718C33.1098 33.2947 32.5502 33.0038 31.9666 32.7724C31.7985 32.7055 31.5093 32.7437 31.3673 32.8552C30.696 33.3807 30.056 33.9477 29.4045 34.4997C29.2208 34.6558 29.0391 34.814 28.8314 34.9924C29.8441 35.8492 30.7931 36.6518 31.7786 37.4852C32.4343 36.1464 33.0544 34.8798 33.6965 33.5708V33.5718ZM27.1777 34.9881C26.2631 34.212 25.4091 33.4848 24.5478 32.766C24.4705 32.7012 24.3191 32.6439 24.2429 32.6779C23.6103 32.9571 22.988 33.2586 22.3449 33.5623C22.987 34.9032 23.5956 36.1719 24.222 37.481C25.2264 36.6337 26.1723 35.8364 27.1787 34.9881H27.1777ZM29.2281 43.935C29.0694 42.6323 28.9159 41.3795 28.7573 40.0779C28.3428 40.0779 27.9628 40.0938 27.5848 40.0726C27.2977 40.0567 27.2142 40.183 27.1923 40.4527C27.1536 40.9251 27.0753 41.3933 27.02 41.8647C26.9396 42.5453 26.8645 43.2269 26.7841 43.934H29.2281V43.935ZM27.9701 35.6846C27.4846 36.1241 26.8039 36.4628 26.6337 36.9756C26.4823 37.4343 26.8937 38.0851 27.0576 38.652C27.067 38.6849 27.068 38.7285 27.09 38.7465C27.2038 38.841 27.3176 38.9928 27.4428 39.0056C27.8062 39.0406 28.1778 39.0449 28.5401 39.0045C28.6769 38.9897 28.8627 38.8463 28.9139 38.7168C29.3649 37.5659 29.1206 36.6058 28.181 35.8364C28.1308 35.795 28.0745 35.76 27.9701 35.6857V35.6846Z" fill="#9254DE"/>
</svg>
