<svg width="88" height="24" viewBox="0 0 88 24" fill="none" xmlns="http://www.w3.org/2000/svg">
<g clip-path="url(#clip0_23_8696)">
<path d="M74.9806 10.6571C83.5377 16.5107 78.369 22.3472 63.2247 23.3974C63.2247 23.3974 63.2075 23.7073 64.1665 23.7704C69.5248 24.1435 74.2627 24.4591 81.7746 21.2511C83.6009 20.4706 84.5427 19.6556 85.094 18.8063C86.3116 16.9354 84.4393 14.3242 81.3955 12.9699C78.1565 11.5294 75.4401 8.96411 75.4401 8.96411C74.6188 8.14919 74.2857 7.30557 74.2168 6.52509C73.2003 7.89668 73.1371 9.38879 74.9864 10.6513" fill="white"/>
<path d="M85.4731 2.45624C85.8923 2.26686 86.2771 2.08895 86.6963 1.89383C86.2714 1.69871 85.8866 1.5208 85.4731 1.33142V2.4505V2.45624Z" fill="white"/>
<path d="M83.5894 1.88233C84.0086 1.69294 84.3934 1.51504 84.8126 1.31992C84.3876 1.1248 84.0029 0.94689 83.5894 0.757507V1.87659V1.88233Z" fill="white"/>
<path d="M86.8686 1.77329C87.2534 1.60113 87.6095 1.4347 87.9943 1.25679C87.598 1.07315 87.2477 0.912462 86.8686 0.740295V1.77329Z" fill="white"/>
<path d="M86.122 1.56096C86.346 1.45766 86.5413 1.36584 86.7825 1.25106C86.5298 1.13628 86.3288 1.04446 86.122 0.952637V1.56096Z" fill="white"/>
<path d="M84.692 2.19224H84.7035C84.7035 2.19224 84.6978 2.19224 84.692 2.19224ZM84.7035 2.19224C84.9218 2.10616 85.14 2.01434 85.4099 1.9053C85.1285 1.78478 84.916 1.69296 84.7035 1.60114C84.7035 1.79626 84.7035 1.99712 84.7035 2.19224ZM84.692 1.5954C84.692 1.5954 84.692 1.5954 84.6978 1.5954H84.692Z" fill="white"/>
<path d="M86.8571 2.7317C87.0467 2.63988 87.2075 2.56527 87.3912 2.47919C87.2075 2.39885 87.0409 2.32424 86.8571 2.2439V2.7317Z" fill="white"/>
<path d="M85.4731 1.17646C85.6511 1.09612 85.8062 1.02725 86.0072 0.935427C85.7947 0.843605 85.6396 0.780477 85.4731 0.705872V1.17072V1.17646Z" fill="white"/>
<path d="M85.4731 0.637029C85.6511 0.556685 85.8062 0.487819 86.0072 0.395997C85.7947 0.304174 85.6396 0.241047 85.4731 0.17218V0.637029Z" fill="white"/>
<path d="M85.4731 4.13202C85.8062 3.97707 86.1163 3.83934 86.4494 3.68439C86.1106 3.52944 85.8004 3.38597 85.4731 3.23676V4.13202Z" fill="white"/>
<path d="M86.122 3.46629C86.346 3.35725 86.5413 3.27117 86.7825 3.15639C86.5298 3.04162 86.3288 2.94979 86.122 2.85797V3.46629Z" fill="white"/>
<path d="M79.6095 6.49067C79.8794 6.36442 80.1034 6.26112 80.3848 6.12912C80.0861 5.99713 79.8507 5.88809 79.6095 5.77905V6.49641V6.49067Z" fill="white"/>
<path d="M80.2642 5.69294C80.5341 5.56669 80.7581 5.46339 81.0395 5.33139C80.7408 5.1994 80.5054 5.09036 80.2642 4.98132V5.69868V5.69294Z" fill="white"/>
<path d="M85.4731 3.07606C85.6511 2.99571 85.8062 2.92685 86.0072 2.83502C85.7947 2.7432 85.6396 2.68007 85.4731 2.60547V3.07032V3.07606Z" fill="white"/>
<path d="M84.7093 1.01005C84.939 0.901016 85.1285 0.814933 85.3697 0.700155C85.117 0.585378 84.916 0.493555 84.7093 0.401733V1.01005Z" fill="white"/>
<path d="M83.8823 0.625538C84.1235 0.516499 84.3245 0.424677 84.5944 0.304161C84.3072 0.183644 84.1005 0.0918221 83.8823 0V0.625538Z" fill="white"/>
<path d="M84.0603 3.81061C84.4795 3.62123 84.8643 3.44332 85.2836 3.2482C84.8586 3.05308 84.4738 2.87517 84.0603 2.68579V3.80487V3.81061Z" fill="white"/>
<path d="M84.7093 2.91533C84.939 2.80629 85.1285 2.72021 85.3697 2.60543C85.117 2.49065 84.916 2.39883 84.7093 2.30701V2.91533Z" fill="white"/>
<path d="M84.0603 2.52509C84.2383 2.44475 84.3934 2.37588 84.5944 2.28406C84.3819 2.19224 84.2211 2.12911 84.0603 2.06024V2.52509Z" fill="white"/>
<path d="M81.9584 2.45624C82.3776 2.26686 82.7624 2.08895 83.1816 1.89383C82.7566 1.69871 82.3719 1.5208 81.9584 1.33142V2.4505V2.45624Z" fill="white"/>
<path d="M77.2089 2.96125C77.6224 2.77186 78.0129 2.59396 78.4322 2.39884C78.0072 2.20371 77.6224 2.02581 77.2089 1.83643V2.95551V2.96125Z" fill="white"/>
<path d="M76.3187 4.12629C76.738 3.9369 77.1227 3.759 77.5477 3.56388C77.1227 3.36875 76.738 3.19085 76.3187 3.00146V4.12055V4.12629Z" fill="white"/>
<path d="M79.0294 3.73603C79.4429 3.54664 79.8335 3.36874 80.2527 3.17362C79.8277 2.97849 79.4429 2.80059 79.0294 2.61121V3.73029V3.73603Z" fill="white"/>
<path d="M82.7739 1.41179C82.9978 1.30849 83.1874 1.21666 83.4228 1.10762C83.1759 0.992847 82.9749 0.906763 82.7739 0.814941V1.41179Z" fill="white"/>
<path d="M81.1773 2.65709H81.1888C81.1888 2.65709 81.1831 2.65709 81.1773 2.65709ZM81.1888 2.65709C81.407 2.571 81.6253 2.47918 81.8952 2.37014C81.6138 2.24962 81.4013 2.1578 81.1888 2.06598C81.1888 2.2611 81.1888 2.46196 81.1888 2.65709ZM81.1773 2.06024C81.1773 2.06024 81.1773 2.06024 81.1831 2.06024H81.1773Z" fill="white"/>
<path d="M80.7638 1.51507L80.7811 1.52655C80.7811 1.52655 80.7811 1.51507 80.7811 1.50933C80.7811 1.50933 80.7696 1.50933 80.7638 1.51507ZM80.7811 1.50933C81.0854 1.38307 81.3956 1.25682 81.7746 1.10187C81.3841 0.935441 81.0797 0.803447 80.7753 0.671452C80.7753 0.946919 80.7753 1.22812 80.7753 1.50359M80.7638 0.665714C80.7638 0.665714 80.7696 0.665714 80.7753 0.665714V0.654236H80.7638V0.665714Z" fill="white"/>
<path d="M83.3424 2.46199C83.5319 2.37016 83.6928 2.29556 83.8765 2.20948C83.6928 2.12913 83.5262 2.05453 83.3424 1.97418V2.46199Z" fill="white"/>
<path d="M81.9584 0.906727C82.1996 0.797688 82.4063 0.705866 82.6762 0.58535C82.3891 0.464833 82.1766 0.373011 81.9584 0.281189V0.906727Z" fill="white"/>
<path d="M80.2355 2.27834C80.5226 2.15209 80.7638 2.04305 81.0854 1.89384C80.7466 1.75037 80.4996 1.64707 80.2355 1.53229V2.2726V2.27834Z" fill="white"/>
<path d="M79.0294 2.46771C79.3625 2.3185 79.6439 2.19224 80.0172 2.02007C79.621 1.85365 79.3338 1.72739 79.0294 1.60114V2.46771Z" fill="white"/>
<path d="M75.3309 4.64277C75.509 4.56242 75.664 4.49356 75.865 4.40173C75.6525 4.30991 75.4917 4.24678 75.3309 4.17792V4.64277Z" fill="white"/>
<path d="M78.1508 3.17933C78.3288 3.09898 78.4838 3.03012 78.6849 2.9383C78.4724 2.84647 78.3116 2.78335 78.1508 2.70874V3.17933Z" fill="white"/>
<path d="M81.9584 4.36158C82.3776 4.17219 82.7624 3.99429 83.1816 3.79917C82.7566 3.60404 82.3719 3.42614 81.9584 3.23676V4.35584V4.36158Z" fill="white"/>
<path d="M82.6073 3.46629C82.8313 3.35725 83.0266 3.27117 83.2678 3.15639C83.0151 3.04162 82.8141 2.94979 82.6073 2.85797V3.46629Z" fill="white"/>
<path d="M83.3309 4.29271C83.5549 4.18367 83.7502 4.09759 83.9914 3.98281C83.7387 3.86803 83.5377 3.77621 83.3309 3.68439V4.29271Z" fill="white"/>
<path d="M79.6956 11.5466C79.9196 11.4376 80.1149 11.3515 80.3561 11.2367C80.1034 11.1219 79.9024 11.0301 79.6956 10.9383V11.5466Z" fill="white"/>
<path d="M81.9584 3.07606C82.1364 2.99571 82.2914 2.92685 82.4925 2.83502C82.28 2.7432 82.1192 2.68007 81.9584 2.60547V3.07032V3.07606Z" fill="white"/>
<path d="M79.6497 4.40745C79.8737 4.29842 80.0689 4.21233 80.3101 4.09756C80.0574 3.98278 79.8564 3.89096 79.6497 3.79913V4.40745Z" fill="white"/>
<path d="M80.9706 4.91822C81.1486 4.83788 81.3037 4.76901 81.5047 4.67719C81.2922 4.58536 81.1314 4.52224 80.9706 4.44763V4.91822Z" fill="white"/>
<path d="M81.3496 5.5954C81.5276 5.51506 81.6827 5.44619 81.8837 5.35437C81.6712 5.26255 81.5104 5.19942 81.3496 5.13055V5.5954Z" fill="white"/>
<path d="M84.5083 4.21808C84.6863 4.13774 84.8414 4.06887 85.0424 3.97705C84.8299 3.88523 84.6691 3.8221 84.5083 3.75323V4.21808Z" fill="white"/>
<path d="M82.5097 4.77473C82.6877 4.69438 82.8428 4.62552 83.0438 4.53369C82.8313 4.44187 82.6705 4.37874 82.5097 4.30414V4.76899V4.77473Z" fill="white"/>
<path d="M80.5513 4.27545C80.9706 4.08607 81.3553 3.90817 81.7803 3.71304C81.3553 3.51792 80.9706 3.34002 80.5513 3.15637V4.27545Z" fill="white"/>
<path d="M81.2003 3.38017C81.4243 3.27113 81.6195 3.18505 81.8607 3.07027C81.608 2.95549 81.407 2.86367 81.2003 2.77185V3.38017Z" fill="white"/>
<path d="M80.5456 2.98993C80.7236 2.90959 80.8787 2.84072 81.0797 2.7489C80.8672 2.65708 80.7064 2.59395 80.5456 2.52509V2.98993Z" fill="white"/>
<path d="M79.4889 1.57246C79.6669 1.49211 79.822 1.42325 80.023 1.33142C79.8105 1.2396 79.6497 1.17647 79.4889 1.10187V1.56672V1.57246Z" fill="white"/>
<path d="M78.7652 5.66425C79.1845 5.47487 79.5693 5.29696 79.9885 5.10184C79.5635 4.90672 79.1787 4.72881 78.7652 4.53943V5.65851V5.66425Z" fill="white"/>
<path d="M75.7502 5.95124C76.1694 5.76185 76.5542 5.58395 76.9734 5.38883C76.5484 5.1937 76.1637 5.0158 75.7502 4.82642V5.9455V5.95124Z" fill="white"/>
<path d="M78.1508 4.30419C78.392 4.19515 78.5987 4.10333 78.8686 3.97707C78.5815 3.85656 78.369 3.76473 78.1508 3.67291V4.30419Z" fill="white"/>
<path d="M77.3525 4.49354C77.5305 4.41319 77.6856 4.34433 77.8866 4.2525C77.6741 4.16068 77.519 4.09755 77.3525 4.02295V4.49354Z" fill="white"/>
<path d="M76.3647 4.91819C76.5887 4.81489 76.7839 4.72881 77.0424 4.61403C76.7724 4.49925 76.5714 4.41317 76.3647 4.32709V4.91819Z" fill="white"/>
<path d="M74.9519 5.91682C75.1299 5.83647 75.285 5.76761 75.486 5.67578C75.2735 5.58396 75.1184 5.52083 74.9519 5.44623V5.91108V5.91682Z" fill="white"/>
<path d="M78.7652 7.56385C79.1845 7.37446 79.5693 7.19656 79.9885 7.00144C79.5635 6.80631 79.1787 6.62841 78.7652 6.43903V7.55811V7.56385Z" fill="white"/>
<path d="M78.5298 10.8637C78.949 10.6743 79.3338 10.4964 79.753 10.3013C79.3281 10.1062 78.9433 9.92827 78.5298 9.73889V10.858V10.8637Z" fill="white"/>
<path d="M77.3984 9.48066C77.8177 9.29127 78.2024 9.11337 78.6274 8.91825C78.2024 8.72312 77.8177 8.54522 77.3984 8.35583V9.47492V9.48066Z" fill="white"/>
<path d="M76.0718 6.89816C76.3532 6.76616 76.6001 6.65139 76.8988 6.51365C76.5829 6.37018 76.3302 6.2554 76.0718 6.14062V6.89816Z" fill="white"/>
<path d="M74.8485 6.8809C75.0725 6.77187 75.2678 6.68578 75.509 6.571C75.2563 6.45623 75.0553 6.36441 74.8485 6.27258V6.8809Z" fill="white"/>
<path d="M75.4343 8.39597C75.7329 8.2525 75.9914 8.13772 76.3072 7.98851C75.9741 7.8393 75.7042 7.71878 75.4343 7.59253V8.39597Z" fill="white"/>
<path d="M76.5427 9.4749C76.7667 9.36586 76.9619 9.27978 77.2032 9.165C76.9505 9.05022 76.7495 8.9584 76.5427 8.86658V9.4749Z" fill="white"/>
<path d="M77.7717 7.13343C77.9497 7.05308 78.1048 6.98422 78.3058 6.8924C78.0933 6.80057 77.9325 6.73745 77.7717 6.66858V7.13343Z" fill="white"/>
<path d="M74.8485 7.53516C75.0266 7.45482 75.1816 7.38595 75.3826 7.29413C75.1701 7.20231 75.0093 7.13918 74.8485 7.06458V7.53516Z" fill="white"/>
<path d="M77.7717 8.13196C77.9497 8.05162 78.1048 7.98275 78.3058 7.89093C78.0933 7.79911 77.9325 7.73598 77.7717 7.66711V8.13196Z" fill="white"/>
<path d="M78.5585 9.60688C78.7365 9.52654 78.8916 9.45767 79.0926 9.36585C78.8801 9.27402 78.7193 9.2109 78.5585 9.13629V9.60114V9.60688Z" fill="white"/>
<path d="M77.6798 10.1865C77.8579 10.1062 78.0129 10.0373 78.2139 9.9455C78.0014 9.85367 77.8406 9.79055 77.6798 9.72168V10.1865Z" fill="white"/>
<path d="M76.0488 8.88379C76.2268 8.80345 76.3819 8.73458 76.5829 8.64276C76.3704 8.55094 76.2154 8.48781 76.0488 8.41895V8.88379Z" fill="white"/>
<path d="M77.3525 6.49067C77.7717 6.30128 78.1565 6.12338 78.5757 5.92825C78.1508 5.73313 77.766 5.55523 77.3525 5.36584V6.49067Z" fill="white"/>
<path d="M76.4566 8.22382C76.8758 8.03444 77.2606 7.85653 77.6856 7.66141C77.2606 7.46629 76.8758 7.28838 76.4566 7.099V8.21808V8.22382Z" fill="white"/>
<path d="M77.8464 5.274C78.1163 5.14775 78.346 5.03871 78.6274 4.90671C78.3288 4.76898 78.0876 4.66568 77.8464 4.5509V5.26826V5.274Z" fill="white"/>
<path d="M80.7811 11.5122C80.9591 11.4319 81.1141 11.363 81.3151 11.2712C81.1027 11.1794 80.9419 11.1162 80.7811 11.0474V11.5122Z" fill="white"/>
<path d="M83.4458 13.165C83.6238 13.0846 83.7789 13.0158 83.9799 12.924C83.7674 12.8321 83.6066 12.769 83.4458 12.6944V13.1592V13.165Z" fill="white"/>
<path d="M85.1113 14.8408C85.2893 14.7604 85.4444 14.6916 85.6454 14.5997C85.4329 14.5079 85.2721 14.4448 85.1113 14.3702V14.8408Z" fill="white"/>
<path d="M80.0287 10.9612C80.2814 10.8465 80.4996 10.7489 80.781 10.6226C80.4767 10.4964 80.2584 10.3988 80.0287 10.3013V10.9612Z" fill="white"/>
<path d="M81.476 11.9886C81.6884 11.891 81.8665 11.8106 82.1019 11.7073C81.8493 11.5983 81.6655 11.5237 81.476 11.4434V11.9943V11.9886Z" fill="white"/>
<path d="M81.476 12.8895C81.7688 12.7518 82.0158 12.637 82.3259 12.4935C81.9986 12.3443 81.7401 12.2295 81.476 12.109V12.8895Z" fill="white"/>
<path d="M80.7811 12.2238C80.9591 12.1435 81.1141 12.0746 81.3151 11.9828C81.1027 11.891 80.9419 11.8278 80.7811 11.759V12.2238Z" fill="white"/>
<path d="M82.7566 12.7862C82.9347 12.7059 83.0897 12.637 83.2907 12.5452C83.0782 12.4533 82.9174 12.3902 82.7566 12.3156V12.7805V12.7862Z" fill="white"/>
<path d="M83.4113 13.8881C83.6411 13.7791 83.8306 13.693 84.0718 13.5782C83.8191 13.4634 83.6181 13.3716 83.4113 13.2798V13.8881Z" fill="white"/>
<path d="M82.7566 13.4979C82.9347 13.4175 83.0897 13.3487 83.2907 13.2568C83.0782 13.165 82.9174 13.1019 82.7566 13.0273V13.4979Z" fill="white"/>
<path d="M84.1866 14.5882C84.5025 14.4448 84.7724 14.3243 85.1285 14.1636C84.7495 14.0029 84.4738 13.8881 84.1866 13.7618V14.5882Z" fill="white"/>
<path d="M85.2032 15.977C85.4271 15.868 85.6224 15.7819 85.8636 15.6671C85.6109 15.5524 85.4099 15.4605 85.2032 15.3687V15.977Z" fill="white"/>
<path d="M84.7495 15.2252C84.9275 15.1449 85.0826 15.076 85.2836 14.9842C85.0711 14.8924 84.9103 14.8292 84.7495 14.7546V15.2195V15.2252Z" fill="white"/>
<path d="M87.5635 2.08897C87.7129 2.0201 87.8335 1.96845 88 1.89385C87.8277 1.81924 87.7071 1.76759 87.5635 1.71021V2.09471V2.08897Z" fill="white"/>
<path d="M58.7164 18.5653C58.3546 18.6686 57.9756 18.7203 57.5793 18.7203C56.9763 18.7203 56.4135 18.6055 55.8851 18.3817C55.3568 18.1521 54.8973 17.8422 54.5011 17.452C54.1048 17.0617 53.7947 16.5969 53.5707 16.0746C53.3467 15.5524 53.2319 14.9842 53.2319 14.3817C53.2319 13.7791 53.3467 13.2167 53.5707 12.683C53.8004 12.1492 54.1106 11.6844 54.5011 11.2941C54.8916 10.9039 55.3568 10.5883 55.8851 10.353C56.4135 10.1177 56.9763 10.0029 57.5793 10.0029C57.9813 10.0029 58.3719 10.0603 58.7624 10.1808C59.1012 9.59544 59.509 9.05598 59.9799 8.56818C60.1924 8.3501 60.4106 8.1435 60.6461 7.94838C60.5485 7.90247 60.4508 7.85656 60.3532 7.81639C59.4401 7.4204 58.5154 7.22528 57.5793 7.22528C56.6432 7.22528 55.7703 7.40319 54.9088 7.75326C54.0474 8.10907 53.2893 8.60261 52.6289 9.23389C51.9684 9.86517 51.4401 10.6227 51.0495 11.5065C50.6533 12.3845 50.458 13.3487 50.458 14.3874C50.458 15.2827 50.6246 16.155 50.9577 17.0101C51.2907 17.8652 51.7674 18.6227 52.3877 19.2884C53.0079 19.9541 53.7602 20.4936 54.6389 20.901C55.5176 21.3085 56.4996 21.5094 57.5793 21.5094C58.5958 21.5094 59.5607 21.2913 60.4738 20.8609C60.5197 20.8379 60.5657 20.815 60.6116 20.792C60.4738 20.683 60.3417 20.5682 60.2154 20.4477C59.6296 19.9082 59.1299 19.2827 58.7164 18.5768V18.5653Z" fill="white"/>
<path d="M66.4638 21.4978C65.5678 21.4978 64.6949 21.3314 63.8392 20.9985C62.9835 20.6657 62.2197 20.1894 61.5477 19.5696C60.8758 18.9498 60.336 18.198 59.9282 17.3199C59.5205 16.4419 59.3195 15.4605 59.3195 14.3816C59.3195 13.4462 59.4975 12.5509 59.8593 11.6786C60.2211 10.812 60.715 10.0488 61.3525 9.38878C61.9842 8.72881 62.7423 8.20083 63.6152 7.81059C64.4882 7.4146 65.4415 7.21948 66.4695 7.21948C67.3884 7.21948 68.2785 7.39739 69.14 7.74746C70.0014 8.10327 70.7595 8.59681 71.42 9.22809C72.0804 9.85937 72.6088 10.6169 73.0108 11.5007C73.4128 12.3787 73.6138 13.3429 73.6138 14.3816C73.6138 15.2998 73.4358 16.1894 73.0854 17.0502C72.7294 17.911 72.2355 18.6686 71.6037 19.3285C70.972 19.9885 70.2139 20.5165 69.341 20.9067C68.4681 21.3027 67.509 21.4978 66.4695 21.4978H66.4638ZM66.4638 9.9971C65.8607 9.9971 65.2979 10.1119 64.7696 10.3357C64.2412 10.5653 63.776 10.8751 63.3798 11.2769C62.9835 11.6786 62.6676 12.1434 62.4379 12.6772C62.2082 13.2109 62.0991 13.779 62.0991 14.3759C62.0991 14.9727 62.2139 15.5409 62.4494 16.0688C62.6849 16.5968 62.995 17.0559 63.3912 17.4462C63.7875 17.8422 64.247 18.1521 64.7696 18.3759C65.2979 18.6054 65.8607 18.7145 66.4638 18.7145C67.0668 18.7145 67.6296 18.5997 68.1579 18.3759C68.6863 18.1521 69.1457 17.8364 69.542 17.4462C69.9383 17.0502 70.2484 16.5911 70.4724 16.0688C70.6963 15.5409 70.8112 14.9784 70.8112 14.3759C70.8112 13.7733 70.6963 13.2109 70.4609 12.6772C70.2254 12.1434 69.9153 11.6786 69.519 11.2769C69.1228 10.8751 68.6633 10.5653 68.135 10.3357C67.6066 10.1119 67.0495 9.9971 66.4638 9.9971Z" fill="white"/>
<path d="M0 7.21375H1.23475L8.87868 15.6097V7.35722H11.6698V21.4863H10.4178L2.79684 13.1133V21.3486H0V7.21375Z" fill="white"/>
<path d="M15.9024 10.1636V13.01H20.491V15.8393H15.9024V18.6858H22.191V21.4921H13.094V7.35724H22.191V10.1636H15.9024Z" fill="white"/>
<path d="M48.9591 10.1636H45.0768V21.4978H42.2685V10.1636H38.346V7.35724H48.9591V10.1636Z" fill="white"/>
<path d="M37.0251 7.34576L32.6547 13.3659L31.4716 11.736L30.8686 10.9039L33.453 7.34576H37.0251Z" fill="white"/>
<path d="M32.0574 14.1922L30.2714 16.6542L26.7681 21.4864H23.196L28.4853 14.1922L23.5118 7.34576H27.084L30.2714 11.736L32.0574 14.1922Z" fill="white"/>
<path d="M33.2577 14.1922L32.6547 15.0244L31.4716 16.6542L30.8686 17.4864L27.9684 21.4864H24.3963L29.6856 14.1922L24.7179 7.34576H28.29L30.8686 10.9039L31.4716 11.736L32.6547 13.3659L33.2577 14.1922Z" fill="white"/>
<path d="M37.3467 21.4864H33.7746L30.8686 17.4864L31.4716 16.6543L32.6547 15.0244L37.3467 21.4864Z" fill="white"/>
</g>
<defs>
<clipPath id="clip0_23_8696">
<rect width="88" height="24" fill="white"/>
</clipPath>
</defs>
</svg>
