<svg width="56" height="56" viewBox="0 0 56 56" fill="none" xmlns="http://www.w3.org/2000/svg">
<circle cx="28" cy="28" r="28" fill="#FFC069" fill-opacity="0.2"/>
<path d="M13.5536 31.1652C12.5797 30.6783 11.6869 30.1913 10.7942 29.7855C10.3884 29.6232 10.1449 29.2985 10.2261 28.8116C10.2261 28.1623 10.2261 27.5942 10.2261 26.9449C10.2261 26.6203 10.3884 26.3768 10.713 26.2145C11.5246 25.8087 12.3362 25.4029 13.1478 24.9971C13.229 24.9159 13.3913 24.9159 13.5536 24.7536C13.3913 24.7536 13.229 24.6725 13.1478 24.6725C12.3362 24.2667 11.5246 23.8609 10.713 23.4551C10.4695 23.3739 10.3072 23.2116 10.3072 22.887C10.3072 22.5623 10.4695 22.4 10.713 22.3188C16.3942 19.4783 21.9942 16.6377 27.6753 13.7971C28 13.6348 28.2435 13.7159 28.5681 13.8783C33.8435 16.5565 39.1188 19.1536 44.4753 21.8319C44.8 21.9942 45.1246 22.1565 45.4492 22.3188C45.6116 22.4 45.7739 22.6435 45.855 22.887C45.9362 23.1304 45.6927 23.3739 45.4492 23.4551C44.6377 23.8609 43.8261 24.2667 43.0145 24.6725C42.9333 24.7536 42.771 24.7536 42.6087 24.9159C42.771 24.9971 42.8521 25.0783 42.9333 25.1594C43.7449 25.5652 44.5565 25.971 45.3681 26.3768C45.6927 26.5391 45.855 26.7826 45.855 27.1072C45.855 27.7565 45.855 28.4058 45.855 29.0551C45.855 29.4609 45.6927 29.6232 45.3681 29.7855C44.4753 30.1913 43.5014 30.6783 42.6087 31.1652C42.771 31.2464 42.8521 31.3275 42.9333 31.3275C43.7449 31.7333 44.5565 32.1391 45.3681 32.5449C45.6116 32.7072 45.9362 32.7884 45.9362 33.1942C45.9362 33.5188 45.6927 33.6812 45.4492 33.8435C40.5797 36.2783 35.7101 38.713 30.8406 41.1478C30.1101 41.5536 29.3797 41.8783 28.6492 42.284C28.4058 42.4464 28.1623 42.4464 27.9188 42.284C22.2377 39.4435 16.6377 36.6029 10.9565 33.7623C10.713 33.6812 10.4695 33.4377 10.5507 33.1942C10.6319 33.0319 10.7942 32.7884 10.9565 32.6261C11.6058 32.1391 12.4985 31.6522 13.5536 31.1652ZM12.1739 22.8058C12.3362 22.887 12.4174 22.9681 12.4985 22.9681C17.6116 25.4841 22.6435 28.0812 27.7565 30.5971C27.9188 30.6783 28.0811 30.6783 28.3246 30.5971C33.4377 28.0812 38.4695 25.4841 43.5826 22.9681C43.6637 22.887 43.7449 22.887 43.9072 22.8058C43.7449 22.7246 43.6637 22.6435 43.5826 22.6435C38.4695 20.1275 33.3565 17.5304 28.3246 15.0145C28.0811 14.9333 27.9188 14.9333 27.7565 15.0145C22.7246 17.5304 17.6116 20.0464 12.5797 22.6435C12.4174 22.7246 12.255 22.7246 12.1739 22.8058ZM12.0927 26.8638C12.255 26.9449 12.3362 27.0261 12.4174 27.0261C17.5304 29.542 22.6435 32.1391 27.7565 34.6551C27.9188 34.7362 28.0811 34.7362 28.2435 34.6551C33.3565 32.1391 38.4695 29.542 43.5826 27.0261C43.6637 26.9449 43.7449 26.9449 43.9072 26.8638C43.0956 26.458 42.284 26.0522 41.5536 25.6464C41.3101 25.4841 41.1478 25.5652 40.9043 25.6464C36.8463 27.6754 32.8695 29.7043 28.8116 31.7333C28.2435 32.058 27.8377 31.9768 27.2695 31.7333C23.2116 29.7043 19.2348 27.6754 15.1768 25.6464C15.0145 25.5652 14.8521 25.4841 14.771 25.5652C13.8782 25.971 13.0666 26.3768 12.0927 26.8638ZM43.9072 33.113C43.0956 32.7072 42.284 32.3014 41.5536 31.9768C41.229 31.8145 41.0666 31.8145 40.742 31.9768C36.684 34.0058 32.5449 36.0348 28.4869 38.1449C28.1623 38.3072 27.8377 38.3072 27.4319 38.1449C23.2927 36.0348 19.1536 34.0058 15.0145 31.8956C14.8521 31.8145 14.6898 31.8145 14.5275 31.8956C13.9594 32.2203 13.3913 32.4638 12.8232 32.7072C12.5797 32.7884 12.3362 32.9507 12.0927 33.113C12.255 33.1942 12.3362 33.2754 12.4174 33.2754C17.5304 35.7913 22.5623 38.3884 27.6753 40.9043C27.9188 40.9855 28 40.9855 28.2435 40.9043C31.4087 39.2812 34.655 37.7391 37.8203 36.1159C39.8492 35.142 41.7971 34.1681 43.9072 33.113ZM27.4319 36.7652C27.4319 36.6029 27.4319 36.4406 27.4319 36.3594C27.513 35.8725 27.3507 35.7101 26.9449 35.4667C21.8319 33.0319 16.8 30.5159 11.7681 28C11.6869 27.9188 11.5246 27.9188 11.3623 27.8377C11.3623 28.0812 11.3623 28.2435 11.3623 28.4058C11.3623 28.6493 11.4435 28.8116 11.7681 28.9739C16.313 31.2464 20.7768 33.5188 25.3217 35.7101C26.0521 36.1159 26.7014 36.4406 27.4319 36.7652ZM28.5681 36.7652C28.7304 36.6841 28.8116 36.684 28.8927 36.6029C31.3275 35.3855 33.8435 34.1681 36.2782 32.9507C38.9565 31.6522 41.6348 30.2725 44.2319 28.9739C44.313 28.8927 44.4753 28.8116 44.4753 28.7304C44.4753 28.4869 44.4753 28.1623 44.4753 27.8377C44.313 27.9188 44.2319 28 44.0695 28C39.1188 30.5159 34.0869 32.9507 29.1362 35.4667C28.4058 35.8725 28.4058 35.8725 28.4058 36.6841C28.5681 36.6841 28.5681 36.6841 28.5681 36.7652Z" fill="#FA8C16"/>
</svg>
