<svg width="52" height="52" viewBox="0 0 52 52" fill="none" xmlns="http://www.w3.org/2000/svg">
<path d="M7.42609 30.0696C6.17391 29.4435 5.02609 28.8174 3.87826 28.2957C3.35652 28.087 3.04348 27.6696 3.14783 27.0435C3.14783 26.2087 3.14783 25.4783 3.14783 24.6435C3.14783 24.2261 3.35652 23.913 3.77391 23.7043C4.81739 23.1826 5.86087 22.6609 6.90435 22.1391C7.0087 22.0348 7.21739 22.0348 7.42609 21.8261C7.21739 21.8261 7.0087 21.7217 6.90435 21.7217C5.86087 21.2 4.81739 20.6783 3.77391 20.1565C3.46087 20.0522 3.25218 19.8435 3.25218 19.4261C3.25218 19.0087 3.46087 18.8 3.77391 18.6957C11.0783 15.0435 18.2783 11.3913 25.5826 7.73913C26 7.53044 26.313 7.63478 26.7304 7.84348C33.513 11.287 40.2957 14.6261 47.1826 18.0696C47.6 18.2783 48.0174 18.487 48.4348 18.6957C48.6435 18.8 48.8522 19.113 48.9565 19.4261C49.0609 19.7391 48.7478 20.0522 48.4348 20.1565C47.3913 20.6783 46.3478 21.2 45.3043 21.7217C45.2 21.8261 44.9913 21.8261 44.7826 22.0348C44.9913 22.1391 45.0957 22.2435 45.2 22.3478C46.2435 22.8696 47.287 23.3913 48.3304 23.913C48.7478 24.1217 48.9565 24.4348 48.9565 24.8522C48.9565 25.687 48.9565 26.5217 48.9565 27.3565C48.9565 27.8783 48.7478 28.087 48.3304 28.2957C47.1826 28.8174 45.9304 29.4435 44.7826 30.0696C44.9913 30.1739 45.0957 30.2783 45.2 30.2783C46.2435 30.8 47.287 31.3217 48.3304 31.8435C48.6435 32.0522 49.0609 32.1565 49.0609 32.6783C49.0609 33.0957 48.7478 33.3043 48.4348 33.513C42.1739 36.6435 35.913 39.7739 29.6522 42.9043C28.713 43.4261 27.7739 43.8435 26.8348 44.3652C26.5217 44.5739 26.2087 44.5739 25.8957 44.3652C18.5913 40.713 11.3913 37.0609 4.08696 33.4087C3.77391 33.3043 3.46087 32.9913 3.56522 32.6783C3.66957 32.4696 3.87826 32.1565 4.08696 31.9478C4.92174 31.3217 6.06957 30.6957 7.42609 30.0696ZM5.65218 19.3217C5.86087 19.4261 5.96522 19.5304 6.06957 19.5304C12.6435 22.7652 19.113 26.1043 25.687 29.3391C25.8957 29.4435 26.1043 29.4435 26.4174 29.3391C32.9913 26.1043 39.4609 22.7652 46.0348 19.5304C46.1391 19.4261 46.2435 19.4261 46.4522 19.3217C46.2435 19.2174 46.1391 19.113 46.0348 19.113C39.4609 15.8783 32.887 12.5391 26.4174 9.30435C26.1043 9.2 25.8957 9.2 25.687 9.30435C19.2174 12.5391 12.6435 15.7739 6.17391 19.113C5.96522 19.2174 5.75652 19.2174 5.65218 19.3217ZM5.54783 24.5391C5.75652 24.6435 5.86087 24.7478 5.96522 24.7478C12.5391 27.9826 19.113 31.3217 25.687 34.5565C25.8957 34.6609 26.1043 34.6609 26.313 34.5565C32.887 31.3217 39.4609 27.9826 46.0348 24.7478C46.1391 24.6435 46.2435 24.6435 46.4522 24.5391C45.4087 24.0174 44.3652 23.4957 43.4261 22.9739C43.113 22.7652 42.9044 22.8696 42.5913 22.9739C37.3739 25.5826 32.2609 28.1913 27.0435 30.8C26.313 31.2174 25.7913 31.113 25.0609 30.8C19.8435 28.1913 14.7304 25.5826 9.51304 22.9739C9.30435 22.8696 9.09565 22.7652 8.99131 22.8696C7.84348 23.3913 6.8 23.913 5.54783 24.5391ZM46.4522 32.5739C45.4087 32.0522 44.3652 31.5304 43.4261 31.113C43.0087 30.9043 42.8 30.9043 42.3826 31.113C37.1652 33.7217 31.8435 36.3304 26.6261 39.0435C26.2087 39.2522 25.7913 39.2522 25.2696 39.0435C19.9478 36.3304 14.6261 33.7217 9.30435 31.0087C9.09565 30.9043 8.88696 30.9043 8.67826 31.0087C7.94783 31.4261 7.21739 31.7391 6.48696 32.0522C6.17391 32.1565 5.86087 32.3652 5.54783 32.5739C5.75652 32.6783 5.86087 32.7826 5.96522 32.7826C12.5391 36.0174 19.0087 39.3565 25.5826 42.5913C25.8957 42.6957 26 42.6957 26.313 42.5913C30.3826 40.5043 34.5565 38.5217 38.6261 36.4348C41.2348 35.1826 43.7391 33.9304 46.4522 32.5739ZM25.2696 37.2696C25.2696 37.0609 25.2696 36.8522 25.2696 36.7478C25.3739 36.1217 25.1652 35.913 24.6435 35.6C18.0696 32.4696 11.6 29.2348 5.13044 26C5.02609 25.8957 4.81739 25.8957 4.6087 25.7913C4.6087 26.1043 4.6087 26.313 4.6087 26.5217C4.6087 26.8348 4.71305 27.0435 5.13044 27.2522C10.9739 30.1739 16.713 33.0957 22.5565 35.913C23.4957 36.4348 24.3304 36.8522 25.2696 37.2696ZM26.7304 37.2696C26.9391 37.1652 27.0435 37.1652 27.1478 37.0609C30.2783 35.4956 33.513 33.9304 36.6435 32.3652C40.087 30.6957 43.5304 28.9217 46.8696 27.2522C46.9739 27.1478 47.1826 27.0435 47.1826 26.9391C47.1826 26.6261 47.1826 26.2087 47.1826 25.7913C46.9739 25.8957 46.8696 26 46.6609 26C40.2957 29.2348 33.8261 32.3652 27.4609 35.6C26.5217 36.1217 26.5217 36.1217 26.5217 37.1652C26.7304 37.1652 26.7304 37.1652 26.7304 37.2696Z" fill="#FA8C16"/>
</svg>
