<svg width="40" height="40" viewBox="0 0 40 40" fill="none" xmlns="http://www.w3.org/2000/svg">
<g clip-path="url(#clip0_546_260)">
<path d="M40 20C40 21.8597 39.746 23.6603 39.272 25.3678C38.8243 26.9772 38.1806 28.505 37.3683 29.9233C37.1558 30.2942 36.932 30.6576 36.6968 31.0135C35.9424 32.1552 35.0736 33.2151 34.1066 34.177L34.1041 34.1796C33.703 34.5794 33.2843 34.9604 32.8518 35.3225C32.7889 35.3778 32.7248 35.4307 32.6606 35.4835C32.1288 35.9185 31.5742 36.3272 30.9984 36.7069C27.9756 38.7024 24.3782 39.8969 20.5067 39.9925C20.4765 39.995 20.4451 39.995 20.4137 39.995C20.3835 39.9962 20.3521 39.9975 20.3206 39.9962C20.215 39.9987 20.1081 40 20.0013 40C19.8944 40 19.785 40 19.6781 39.9975H19.6517C19.6215 39.9975 19.5901 39.9975 19.5599 39.995C19.4744 39.995 19.3889 39.9912 19.3021 39.9874C15.3439 39.8516 11.6786 38.5666 8.62819 36.4529C8.6219 36.4491 8.61562 36.4441 8.60933 36.4403C8.4597 36.336 8.31007 36.2304 8.16296 36.121C7.53678 35.6608 6.93826 35.1641 6.36992 34.6347C6.36112 34.6259 6.35232 34.6184 6.34352 34.6096C6.31711 34.5857 6.29071 34.5605 6.26556 34.5354C5.149 33.4817 4.15441 32.2998 3.30441 31.0147C3.24657 30.9267 3.18999 30.8399 3.13341 30.7507C2.29976 29.4455 1.61449 28.0372 1.09896 26.5497C0.386018 24.4977 0 22.2947 0 20C0 8.95511 8.95511 0 20 0C31.0449 0 40 8.95511 40 20Z" fill="#C6E4F6"/>
<path d="M20 12.0382C23.0932 12.0382 25.6017 14.5467 25.6017 17.6399C25.6017 20.733 14.3983 20.733 14.3983 17.6399C14.3983 14.5467 16.9068 12.0382 20 12.0382Z" fill="white"/>
<path d="M20 12.0382C16.9068 12.0382 14.3983 14.5467 14.3983 17.6399H20V12.0382Z" fill="#EAEAEA"/>
<path d="M20 27.3204C17.7053 27.3204 15.8443 25.4595 15.8443 23.1648C15.8443 20.87 24.1544 20.87 24.1544 23.1648C24.1544 25.4595 22.2935 27.3204 19.9988 27.3204H20Z" fill="#302D2D"/>
<path d="M20 27.3205C22.2947 27.3205 24.1557 25.4595 24.1557 23.1648H20V27.3205Z" fill="#3E3A39"/>
<path d="M25.5375 24.382H14.4474C12.1501 23.4943 10.2465 22.0672 8.78788 20.2766C8.41318 19.8164 8.6546 18.9702 9.15881 18.9702H30.8412C31.3454 18.9702 31.5856 19.8164 31.2121 20.2766C29.7536 22.0672 27.8348 23.4956 25.5375 24.382Z" fill="#C93F09"/>
<path d="M31.2121 20.2766C29.7536 22.0672 27.8348 23.4956 25.5375 24.382H20V18.9702H30.8412C31.3454 18.9702 31.5856 19.8164 31.2121 20.2766Z" fill="#EC4A0A"/>
<path d="M16.8754 16.7145H23.1246C25.7362 16.7145 28.3088 17.0779 30.4124 17.8034C31.0864 18.036 31.6799 18.2912 32.1765 18.5654H7.82347C8.32014 18.2912 8.91363 18.036 9.58759 17.8034C11.6912 17.0779 14.2638 16.7145 16.8754 16.7145Z" fill="#D77131"/>
<path d="M34.0312 20.259L6.10588 20.259C5.63185 20.259 5.24834 19.8743 5.24834 19.4015C5.24834 18.94 5.62304 18.5653 6.08451 18.5653L34.0526 18.5653C34.514 18.5653 34.8887 18.94 34.8887 19.4015C34.8887 19.8755 34.504 20.259 34.0312 20.259Z" fill="#3E3A39"/>
<path d="M20 18.5654V16.7145H23.1246C25.7362 16.7145 28.3088 17.0779 30.4124 17.8034C31.0864 18.036 31.6799 18.2912 32.1765 18.5654H20Z" fill="#FD853A"/>
<path d="M20 18.5653V20.259H6.1021C5.63058 20.259 5.24834 19.8768 5.24834 19.4053V19.4002C5.24834 18.9388 5.62304 18.5641 6.0845 18.5641H20V18.5653Z" fill="#302D2D"/>
<path d="M22.2205 19.8994C22.4893 19.8994 22.7071 19.6815 22.7071 19.4128C22.7071 19.144 22.4893 18.9261 22.2205 18.9261C21.9518 18.9261 21.7339 19.144 21.7339 19.4128C21.7339 19.6815 21.9518 19.8994 22.2205 19.8994Z" fill="white"/>
<path d="M26.8565 19.8994C27.1253 19.8994 27.3432 19.6815 27.3432 19.4128C27.3432 19.144 27.1253 18.9261 26.8565 18.9261C26.5878 18.9261 26.3699 19.144 26.3699 19.4128C26.3699 19.6815 26.5878 19.8994 26.8565 19.8994Z" fill="white"/>
<path d="M31.4938 19.8994C31.7625 19.8994 31.9804 19.6815 31.9804 19.4128C31.9804 19.144 31.7625 18.9261 31.4938 18.9261C31.225 18.9261 31.0072 19.144 31.0072 19.4128C31.0072 19.6815 31.225 19.8994 31.4938 19.8994Z" fill="white"/>
<path d="M8.31008 19.8994C8.57883 19.8994 8.79669 19.6815 8.79669 19.4128C8.79669 19.144 8.57883 18.9261 8.31008 18.9261C8.04133 18.9261 7.82347 19.144 7.82347 19.4128C7.82347 19.6815 8.04133 19.8994 8.31008 19.8994Z" fill="#EAEAEA"/>
<path d="M12.9473 19.8994C13.2161 19.8994 13.4339 19.6815 13.4339 19.4128C13.4339 19.144 13.2161 18.9261 12.9473 18.9261C12.6786 18.9261 12.4607 19.144 12.4607 19.4128C12.4607 19.6815 12.6786 19.8994 12.9473 19.8994Z" fill="#EAEAEA"/>
<path d="M17.5833 19.8994C17.852 19.8994 18.0699 19.6815 18.0699 19.4128C18.0699 19.144 17.852 18.9261 17.5833 18.9261C17.3146 18.9261 17.0967 19.144 17.0967 19.4128C17.0967 19.6815 17.3146 19.8994 17.5833 19.8994Z" fill="#EAEAEA"/>
</g>
<defs>
<clipPath id="clip0_546_260">
<rect width="40" height="40" fill="white"/>
</clipPath>
</defs>
</svg>
