<svg width="52" height="52" viewBox="0 0 52 52" fill="none" xmlns="http://www.w3.org/2000/svg">
<path d="M4.4 26C4.4 22.7652 4.4 19.4261 4.4 16.1913C4.4 15.4609 4.60869 15.0435 5.33913 14.7304C12.0174 11.3913 18.5913 8.15652 25.2696 4.81739C25.7913 4.50435 26.313 4.50435 26.8348 4.81739C33.4087 8.15652 40.087 11.4957 46.7652 14.7304C47.3913 15.0435 47.7043 15.4609 47.7043 16.1913C47.7043 22.7652 47.7043 29.3391 47.7043 35.913C47.7043 36.6435 47.3913 37.0609 46.7652 37.4783C40.1913 40.8174 33.513 44.0522 26.9391 47.3913C26.4174 47.7043 25.8957 47.7043 25.3739 47.3913C18.6957 44.0522 12.0174 40.713 5.33913 37.3739C4.81739 37.0609 4.50435 36.7478 4.50435 36.1217C4.4 32.6783 4.4 29.3391 4.4 26ZM6.38261 17.3391C6.38261 17.4435 6.38261 17.5478 6.38261 17.5478C6.38261 23.4957 6.38261 29.4435 6.38261 35.3913C6.38261 35.7043 6.48695 35.8087 6.8 35.913C12.7478 38.8348 18.6957 41.8609 24.6435 44.7826C24.7478 44.887 24.8522 44.887 25.0609 44.9913C25.0609 44.7826 25.0609 44.6783 25.0609 44.5739C25.0609 38.7304 25.0609 32.887 25.0609 27.0435C25.0609 26.7304 24.9565 26.6261 24.7478 26.4174C18.8 23.4957 12.8522 20.4696 6.90435 17.5478C6.69565 17.4435 6.5913 17.4435 6.38261 17.3391ZM26.9391 44.9913C27.1478 44.887 27.2522 44.887 27.4609 44.7826C33.4087 41.8609 39.2522 38.8348 45.2 35.913C45.513 35.8087 45.6174 35.6 45.6174 35.287C45.6174 29.4435 45.6174 23.7043 45.6174 17.8609C45.6174 17.7565 45.6174 17.5478 45.6174 17.3391C45.513 17.4435 45.3043 17.4435 45.2 17.5478C43.9478 18.1739 42.8 18.8 41.5478 19.3217C41.2348 19.4261 41.1304 19.6348 41.1304 19.9478C41.1304 22.3478 41.1304 24.8522 41.1304 27.2522C41.1304 28.087 41.1304 28.8174 41.1304 29.6522C41.1304 30.0696 40.9217 30.3826 40.6087 30.5913C40.1913 30.8 39.8783 30.6957 39.5652 30.487C39.2522 30.2783 39.0435 30.0696 38.7304 29.9652C38.1043 29.5478 37.5826 29.1304 36.9565 28.713C36.7478 29.0261 36.5391 29.2348 36.4348 29.5478C35.3913 31.113 34.2435 32.6783 33.2 34.2435C32.7826 34.7652 32.2609 34.9739 31.7391 34.6609C31.4261 34.4522 31.3217 34.0348 31.3217 33.6174C31.3217 30.8 31.3217 27.9826 31.3217 25.1652C31.3217 24.9565 31.3217 24.8522 31.3217 24.6435C29.9652 25.2696 28.713 26 27.3565 26.6261C27.0435 26.8348 26.9391 27.0435 26.9391 27.3565C26.9391 33.0957 26.9391 38.9391 26.9391 44.6783C26.9391 44.5739 26.9391 44.7826 26.9391 44.9913ZM14.2087 12.3304C14.313 12.4348 14.4174 12.4348 14.4174 12.4348C20.3652 15.4609 26.313 18.3826 32.2609 21.4087C32.3652 21.513 32.6783 21.513 32.887 21.4087C34.5565 20.5739 36.2261 19.7391 37.8957 18.9044C38 18.9044 38.1043 18.8 38.2087 18.6957C38.1043 18.5913 38 18.5913 38 18.5913C32.0522 15.5652 26.1043 12.6435 20.1565 9.61739C20.0522 9.51305 19.7391 9.51305 19.5304 9.61739C17.8609 10.4522 16.1913 11.287 14.5217 12.1217C14.5217 12.2261 14.4174 12.3304 14.2087 12.3304ZM7.63478 15.6696C7.73913 15.7739 7.84348 15.7739 7.84348 15.7739C13.7913 18.8 19.7391 21.7217 25.7913 24.7478C25.8956 24.8522 26.2087 24.7478 26.313 24.7478C27.5652 24.1217 28.8174 23.4957 30.0696 22.8696C30.1739 22.8696 30.2783 22.7652 30.3826 22.6609C30.1739 22.5565 30.0696 22.4522 29.8609 22.3478C28.5043 21.6174 27.1478 20.9913 25.7913 20.2609C21.3043 18.0696 16.8174 15.7739 12.3304 13.5826C12.2261 13.4783 11.913 13.4783 11.8087 13.4783C10.4522 14.2087 9.09565 14.9391 7.63478 15.6696ZM44.3652 15.6696C44.0522 15.5652 43.9478 15.4609 43.7391 15.3565C38.5217 12.7478 33.2 10.0348 27.8783 7.42609C27.2522 7.11305 26.6261 6.59131 26.1043 6.59131C25.4783 6.59131 24.8522 7.11305 24.2261 7.42609C23.4956 7.73913 22.8696 8.15652 22.1391 8.46957C22.2435 8.57392 22.2435 8.57392 22.2435 8.57392C28.2957 11.6 34.2435 14.6261 40.2957 17.5478C40.4 17.6522 40.6087 17.6522 40.713 17.5478C41.8609 17.0261 43.113 16.4 44.3652 15.6696ZM33.4087 30.3826C33.6174 30.1739 33.6174 30.0696 33.7217 29.9652C34.4522 28.9217 35.1826 27.8783 35.913 26.8348C36.4348 26.1043 36.9565 26 37.687 26.5217C38.2087 26.9391 38.7304 27.2522 39.3565 27.6696C39.3565 25.2696 39.3565 22.8696 39.3565 20.4696H39.2522C37.3739 21.4087 35.4956 22.3478 33.6174 23.287C33.513 23.287 33.4087 23.4957 33.4087 23.6C33.4087 25.8957 33.4087 28.087 33.4087 30.3826Z" fill="#389E0D"/>
</svg>
