<svg width="56" height="56" viewBox="0 0 56 56" fill="none" xmlns="http://www.w3.org/2000/svg">
<circle cx="28" cy="28" r="28" fill="#73D13D" fill-opacity="0.2"/>
<path d="M11.2 28C11.2 25.4841 11.2 22.887 11.2 20.371C11.2 19.8029 11.3623 19.4783 11.9304 19.2348C17.1246 16.6377 22.2377 14.1218 27.4319 11.5246C27.8377 11.2812 28.2435 11.2812 28.6493 11.5246C33.7623 14.1218 38.9565 16.7189 44.1507 19.2348C44.6377 19.4783 44.8811 19.8029 44.8811 20.371C44.8811 25.4841 44.8811 30.5971 44.8811 35.7102C44.8811 36.2783 44.6377 36.6029 44.1507 36.9275C39.0377 39.5246 33.8435 42.0406 28.7304 44.6377C28.3246 44.8812 27.9188 44.8812 27.513 44.6377C22.3188 42.0406 17.1246 39.4435 11.9304 36.8464C11.5246 36.6029 11.2811 36.3594 11.2811 35.8725C11.2 33.1942 11.2 30.5971 11.2 28ZM12.742 21.2638C12.742 21.3449 12.742 21.4261 12.742 21.4261C12.742 26.0522 12.742 30.6783 12.742 35.3044C12.742 35.5478 12.8232 35.629 13.0666 35.7102C17.6927 37.9826 22.3188 40.3362 26.9449 42.6087C27.0261 42.6899 27.1072 42.6899 27.2695 42.771C27.2695 42.6087 27.2695 42.5275 27.2695 42.4464C27.2695 37.9015 27.2695 33.3565 27.2695 28.8116C27.2695 28.5681 27.1884 28.487 27.0261 28.3246C22.4 26.0522 17.7739 23.6986 13.1478 21.4261C12.9855 21.3449 12.9043 21.3449 12.742 21.2638ZM28.7304 42.771C28.8927 42.6899 28.9739 42.6899 29.1362 42.6087C33.7623 40.3362 38.3072 37.9826 42.9333 35.7102C43.1768 35.629 43.258 35.4667 43.258 35.2232C43.258 30.6783 43.258 26.2145 43.258 21.6696C43.258 21.5884 43.258 21.4261 43.258 21.2638C43.1768 21.3449 43.0145 21.3449 42.9333 21.4261C41.9594 21.9131 41.0667 22.4 40.0927 22.8058C39.8493 22.887 39.7681 23.0493 39.7681 23.2928C39.7681 25.1594 39.7681 27.1073 39.7681 28.9739C39.7681 29.6232 39.7681 30.1913 39.7681 30.8406C39.7681 31.1652 39.6058 31.4087 39.3623 31.571C39.0377 31.7333 38.7942 31.6522 38.5507 31.4899C38.3072 31.3275 38.1449 31.1652 37.9014 31.0841C37.4145 30.7594 37.0087 30.4348 36.5217 30.1102C36.3594 30.3536 36.1971 30.516 36.1159 30.7594C35.3043 31.9768 34.4116 33.1942 33.6 34.4116C33.2753 34.8174 32.8695 34.9797 32.4638 34.7362C32.2203 34.5739 32.1391 34.2493 32.1391 33.9246C32.1391 31.7333 32.1391 29.542 32.1391 27.3507C32.1391 27.1884 32.1391 27.1073 32.1391 26.9449C31.084 27.4319 30.1101 28 29.0551 28.487C28.8116 28.6493 28.7304 28.8116 28.7304 29.0551C28.7304 33.5189 28.7304 38.0638 28.7304 42.5275C28.7304 42.4464 28.7304 42.6087 28.7304 42.771ZM18.829 17.3681C18.9101 17.4493 18.9913 17.4493 18.9913 17.4493C23.6174 19.8029 28.2435 22.0754 32.8695 24.429C32.9507 24.5102 33.1942 24.5102 33.3565 24.429C34.6551 23.7797 35.9536 23.1304 37.2522 22.4812C37.3333 22.4812 37.4145 22.4 37.4956 22.3189C37.4145 22.2377 37.3333 22.2377 37.3333 22.2377C32.7072 19.8841 28.0811 17.6116 23.4551 15.258C23.3739 15.1768 23.1304 15.1768 22.9681 15.258C21.6695 15.9073 20.371 16.5565 19.0724 17.2058C19.0724 17.287 18.9913 17.3681 18.829 17.3681ZM13.7159 19.9652C13.7971 20.0464 13.8782 20.0464 13.8782 20.0464C18.5043 22.4 23.1304 24.6725 27.8377 27.0261C27.9188 27.1073 28.1623 27.0261 28.2435 27.0261C29.2174 26.5391 30.1913 26.0522 31.1652 25.5652C31.2464 25.5652 31.3275 25.4841 31.4087 25.4029C31.2464 25.3217 31.1652 25.2406 31.0029 25.1594C29.9478 24.5913 28.8927 24.1044 27.8377 23.5362C24.3478 21.8319 20.858 20.0464 17.3681 18.342C17.2869 18.2609 17.0435 18.2609 16.9623 18.2609C15.9072 18.829 14.8522 19.3971 13.7159 19.9652ZM42.284 19.9652C42.0406 19.8841 41.9594 19.8029 41.7971 19.7218C37.7391 17.6928 33.6 15.5826 29.4609 13.5536C28.9739 13.3102 28.4869 12.9044 28.0811 12.9044C27.5942 12.9044 27.1072 13.3102 26.6203 13.5536C26.0522 13.7971 25.5652 14.1218 24.9971 14.3652C25.0782 14.4464 25.0782 14.4464 25.0782 14.4464C29.7855 16.8 34.4116 19.1536 39.1188 21.4261C39.2 21.5073 39.3623 21.5073 39.4435 21.4261C40.3362 21.0203 41.3101 20.5333 42.284 19.9652ZM33.7623 31.4087C33.9246 31.2464 33.9246 31.1652 34.0058 31.0841C34.5739 30.2725 35.142 29.4609 35.7101 28.6493C36.1159 28.0812 36.5217 28 37.0898 28.4058C37.4956 28.7304 37.9014 28.9739 38.3884 29.2986C38.3884 27.4319 38.3884 25.5652 38.3884 23.6986H38.3072C36.8464 24.429 35.3855 25.1594 33.9246 25.8899C33.8435 25.8899 33.7623 26.0522 33.7623 26.1333C33.7623 27.9189 33.7623 29.6232 33.7623 31.4087Z" fill="#389E0D"/>
</svg>
