<svg width="56" height="56" viewBox="0 0 56 56" fill="none" xmlns="http://www.w3.org/2000/svg">
<circle cx="28" cy="28" r="28" transform="rotate(180 28 28)" fill="#D88F88" fill-opacity="0.2"/>
<path d="M17.1263 37.3333C16.5202 37.3333 16.0145 37.128 15.6092 36.7173C15.2039 36.3067 15.0009 35.7938 15 35.1787V22.1547C15 21.5404 15.2031 21.028 15.6092 20.6173C16.0154 20.2067 16.5206 20.0009 17.125 20H22.8947V18.1533C22.8947 17.54 23.0978 17.0276 23.5039 16.616C23.9101 16.2044 24.4158 15.9991 25.0211 16H28.6645C29.2697 16 29.7754 16.2053 30.1816 16.616C30.5877 17.0267 30.7903 17.5391 30.7895 18.1533V20H36.5592C37.1645 20 37.6697 20.2058 38.075 20.6173C38.4803 21.0289 38.6833 21.5413 38.6842 22.1547V27.752C38.4746 27.6169 38.2645 27.4991 38.0539 27.3987C37.8434 27.2991 37.6149 27.2058 37.3684 27.1187V22.1547C37.3684 21.9147 37.2925 21.7178 37.1408 21.564C36.989 21.4102 36.7952 21.3333 36.5592 21.3333H17.125C16.889 21.3333 16.6952 21.4102 16.5434 21.564C16.3917 21.7178 16.3158 21.9147 16.3158 22.1547V35.18C16.3158 35.4191 16.3917 35.6156 16.5434 35.7693C16.6952 35.9231 16.8895 36 17.1263 36H26.9408C26.9899 36.2444 27.0425 36.4738 27.0987 36.688C27.1539 36.9013 27.221 37.1164 27.3 37.3333H17.1263ZM24.2105 20H29.4737V18.1533C29.4737 17.9142 29.3978 17.7178 29.246 17.564C29.0943 17.4102 28.9004 17.3333 28.6645 17.3333H25.0197C24.7838 17.3333 24.5899 17.4102 24.4382 17.564C24.2864 17.7178 24.2105 17.9142 24.2105 18.1533V20ZM34.7368 40C33.271 40 32.0276 39.4827 31.0066 38.448C29.9846 37.4116 29.4737 36.1511 29.4737 34.6667C29.4737 33.1822 29.9846 31.9222 31.0066 30.8867C32.0285 29.8511 33.2719 29.3333 34.7368 29.3333C36.2017 29.3333 37.4456 29.8511 38.4684 30.8867C39.4912 31.9222 40.0017 33.1822 40 34.6667C39.9982 36.1511 39.4877 37.4116 38.4684 38.448C37.4491 39.4844 36.2053 40.0018 34.7368 40ZM35.2434 34.452V30.8213H34.2303V34.8827L36.9079 37.5947L37.6263 36.8667L35.2434 34.452Z" fill="#FF8E8E"/>
</svg>
